<svg id="data_image_svg_xml_2_" data-name="data_image_svg+xml;… (2)" xmlns="http://www.w3.org/2000/svg" width="24" height="24" viewBox="0 0 24 24">
  <path id="Path_3082" data-name="Path 3082" d="M0,24V0H24V24Z" fill="none"/>
  <g id="Group_11027" data-name="Group 11027" transform="translate(4.5 3)">
    <path id="Path_3083" data-name="Path 3083" d="M34.5,21.5a2.258,2.258,0,0,0-2.25,2.25V30.5h1.5V23.75A.74.74,0,0,1,34.5,23h6.75v4.5h4.5v3h1.5V26.439L42.311,21.5Zm8.25,2.561L44.689,26H42.75ZM32.25,32l1.5,3.75-1.5,3.75h1.5l.75-1.875.75,1.875h1.5l-1.5-3.75L36.75,32h-1.5l-.75,1.875L33.75,32Zm6,0v7.5h3V38h-1.5V32Zm6.779,0a2.2,2.2,0,0,0-1.682.656,2.352,2.352,0,0,0-.568,1.594c0,1.213,1.107,1.758,1.91,2.156.639.322,1.09.563,1.09.855a.965.965,0,0,1-.211.568.685.685,0,0,1-.539.17H42.92a2.107,2.107,0,0,0,.5.885,2.4,2.4,0,0,0,3.217-.006,2.435,2.435,0,0,0,.639-1.629c0-1.23-1.113-1.781-1.922-2.186-.627-.311-1.072-.557-1.078-.861a.836.836,0,0,1,.176-.527.765.765,0,0,1,.574-.176h2.127A2.126,2.126,0,0,0,45.029,32Z" transform="translate(-32.25 -21.5)"/>
  </g>
</svg>
