<svg id="data_image_svg_xml_10_" data-name="data_image_svg+xml;… (10)" xmlns="http://www.w3.org/2000/svg" width="24" height="24" viewBox="0 0 24 24">
  <path id="Path_1396" data-name="Path 1396" d="M0,24V0H24V24Z" fill="none"/>
  <g id="Group_8594" data-name="Group 8594" transform="translate(2.257 2.25)">
    <path id="Path_1397" data-name="Path 1397" d="M29.67,16.125a6.012,6.012,0,0,0-6,6,5.4,5.4,0,0,0,.059.633C21.5,25,17.7,28.793,17.272,29.227a3.745,3.745,0,0,0,5.3,5.3l6.463-6.457a5.621,5.621,0,0,0,.639.059,6.012,6.012,0,0,0,6-6,5.942,5.942,0,0,0-.68-2.766l-.469-.9-3.961,3.955-1.178-1.178,3.961-3.961-.908-.469a5.942,5.942,0,0,0-2.766-.68Zm0,1.5a4.114,4.114,0,0,1,.961.234l-3.369,3.375,3.3,3.3L31.094,24l2.842-2.836a4.114,4.114,0,0,1,.234.961,4.486,4.486,0,0,1-4.5,4.5,5.3,5.3,0,0,1-.8-.07l-.381-.07-6.979,6.984a2.254,2.254,0,0,1-3.188-3.188c.451-.445,4.523-4.518,6.709-6.7l.275-.281-.07-.381a5.153,5.153,0,0,1-.07-.791,4.486,4.486,0,0,1,4.5-4.5Z" transform="translate(-16.178 -16.125)"/>
  </g>
</svg>
