<svg id="data_image_svg_xml_8_" data-name="data_image_svg+xml;… (8)" xmlns="http://www.w3.org/2000/svg" width="24" height="24" viewBox="0 0 24 24">
  <path id="Path_1402" data-name="Path 1402" d="M0,24V0H24V24Z" fill="none"/>
  <g id="Group_8597" data-name="Group 8597" transform="translate(1.497 1.5)">
    <path id="Path_1403" data-name="Path 1403" d="M18.107,10.75a1.391,1.391,0,0,0-1.377,1.377v6.246a1.391,1.391,0,0,0,1.377,1.377h6.246a1.387,1.387,0,0,0,1.377-1.377V12.127a1.387,1.387,0,0,0-1.377-1.377Zm.123,1.5h6v6h-6Zm1.5,1.5v1.5h3v-1.5Zm-3,7.5a8.153,8.153,0,0,0-1.711.223.336.336,0,0,0-.082.023l-3.7,1.295a.747.747,0,0,0-.469.943l1.5,4.5a.767.767,0,0,0,.4.445.757.757,0,0,0,.6.018l3.434-1.377,4.77,2.35-.088-.047a3.763,3.763,0,0,0,3.686.264.556.556,0,0,0,.1-.059l6.24-4.207.615-.416-.832-1.248-.627.422-6.152,4.154a2.261,2.261,0,0,1-2.2-.158.419.419,0,0,0-.088-.047l-5.063-2.5a.76.76,0,0,0-.609-.023L13.437,27.01l-1.008-3.047,2.953-1.037a8.45,8.45,0,0,1,1.348-.176,2.329,2.329,0,0,1,1.787.586,13.451,13.451,0,0,0,2.742,2,9.273,9.273,0,0,0,3.721.416h.75v-1.5h-.75a8.344,8.344,0,0,1-3.123-.293,16.185,16.185,0,0,1-2.414-1.793,4.155,4.155,0,0,0-2.713-.914Z" transform="translate(-10.726 -10.75)"/>
  </g>
</svg>
