<svg id="data_image_svg_xml_2_" data-name="data_image_svg+xml;… (2)" xmlns="http://www.w3.org/2000/svg" width="24" height="24" viewBox="0 0 24 24">
  <path id="Path_209" data-name="Path 209" d="M0,24V0H24V24Z" fill="none"/>
  <g id="Group_7619" data-name="Group 7619" transform="translate(2.5 2.488)">
    <path id="Path_210" data-name="Path 210" d="M10.75,10.666v1.5h3a.748.748,0,0,1,.7.516l1.4,12.5a2.265,2.265,0,0,0,2.238,2H27.25v-1.5H18.092a.739.739,0,0,1-.744-.662l-.094-.838H26.77a2.264,2.264,0,0,0,2.209-1.8l1.436-7.2H16.24l-.322-2.859-.023-.07a2.253,2.253,0,0,0-2.145-1.582Zm15,16.512a1.5,1.5,0,1,0,1.5,1.5A1.5,1.5,0,0,0,25.75,27.178Zm-7.5,0a1.5,1.5,0,1,0,1.5,1.5A1.5,1.5,0,0,0,18.25,27.178Zm-1.84-10.5H28.586l-1.078,5.4a.747.747,0,0,1-.738.6H17.084Z" transform="translate(-10.75 -10.666)"/>
  </g>
</svg>
