<svg id="data_image_svg_xml_9_" data-name="data_image_svg+xml;… (9)" xmlns="http://www.w3.org/2000/svg" width="24" height="24" viewBox="0 0 24 24">
  <path id="Path_1487" data-name="Path 1487" d="M0,24V0H24V24Z" fill="none"/>
  <g id="Group_8631" data-name="Group 8631" transform="translate(2.487 0.991)">
    <path id="Path_1488" data-name="Path 1488" d="M39.755,21.5a4.5,4.5,0,1,0,4.5,4.5A4.511,4.511,0,0,0,39.755,21.5Zm0,9a7.511,7.511,0,0,0-7.505,7.5h1.5a5.978,5.978,0,0,1,9.686-4.713l1.05-1.067A7.479,7.479,0,0,0,39.755,30.5Zm0-7.5a3,3,0,1,1-3,3A2.992,2.992,0,0,1,39.755,23Zm9.311,7.509a1.885,1.885,0,0,0-1.337.569l-7,7.116-1.044,4.385,4.386-1.038.147-.152,6.977-6.852a1.9,1.9,0,0,0,.012-2.691l-.786-.791a1.877,1.877,0,0,0-1.354-.545ZM49.078,32a.4.4,0,0,1,.281.123l.786.785a.383.383,0,0,1,0,.563l-6.825,6.7-1.618.393.387-1.618L48.8,32.122A.375.375,0,0,1,49.078,32Z" transform="translate(-32.25 -21.5)"/>
  </g>
</svg>
