<svg id="data_image_svg_xml_2_" data-name="data_image_svg+xml;… (2)" xmlns="http://www.w3.org/2000/svg" width="24" height="24" viewBox="0 0 24 24">
  <path id="Path_1449" data-name="Path 1449" d="M0,24V0H24V24Z" fill="none"/>
  <g id="Group_8612" data-name="Group 8612" transform="translate(2.198 2.233)">
    <path id="Path_1450" data-name="Path 1450" d="M13,10.75A2.258,2.258,0,0,0,10.75,13V28A2.258,2.258,0,0,0,13,30.25H28A2.258,2.258,0,0,0,30.25,28V13A2.258,2.258,0,0,0,28,10.75Zm0,1.5H28a.74.74,0,0,1,.75.75V28a.74.74,0,0,1-.75.75H13a.74.74,0,0,1-.75-.75V13A.74.74,0,0,1,13,12.25Zm2.25,3a10.571,10.571,0,0,0-1.5.117v1.518A8.952,8.952,0,0,1,24.115,27.25h1.518a10.439,10.439,0,0,0-10.383-12Zm0,4.5a6.019,6.019,0,0,0-1.5.211v1.564a4.4,4.4,0,0,1,1.5-.275,4.509,4.509,0,0,1,4.5,4.5,4.4,4.4,0,0,1-.275,1.5h1.564a5.931,5.931,0,0,0-5.789-7.5Zm0,4.5a1.5,1.5,0,1,0,1.5,1.5A1.5,1.5,0,0,0,15.25,24.25Z" transform="translate(-10.75 -10.75)"/>
  </g>
</svg>
