<svg xmlns="http://www.w3.org/2000/svg" width="24" height="24" viewBox="0 0 24 24">
  <g id="data_image_svg_xml_7_" data-name="data_image_svg+xml;… (7)" transform="translate(0)">
    <path id="Path_2788" data-name="Path 2788" d="M0,24V0H24V24Z" transform="translate(0)" fill="none"/>
    <g id="Group_10273" data-name="Group 10273" transform="translate(0 4.474)">
      <path id="Path_2789" data-name="Path 2789" d="M11.931,32.063A4.455,4.455,0,0,0,9.2,40.055a7.356,7.356,0,0,0-1.754,1c0-.017.006-.029.006-.047A2.983,2.983,0,1,0,2.33,43.073,4.466,4.466,0,0,0,0,46.976H1.491a2.974,2.974,0,0,1,2.983-2.983,3.04,3.04,0,0,1,.618.064,7.376,7.376,0,0,0-.618,2.919H5.965a5.938,5.938,0,0,1,4.474-5.756V42.5l1.491,1.491L13.422,42.5V41.22A5.938,5.938,0,0,1,17.9,46.976h1.491a7.379,7.379,0,0,0-.6-2.913,2.944,2.944,0,0,1,3.583,2.913h1.491a4.466,4.466,0,0,0-2.33-3.9A2.979,2.979,0,1,0,16.4,41.011v.035a7.365,7.365,0,0,0-1.748-.99,4.455,4.455,0,0,0-2.726-7.993Zm0,11.931-1.491,1.491v1.491h2.983V45.485Zm0-10.44a2.983,2.983,0,1,1-2.983,2.983A2.974,2.974,0,0,1,11.931,33.554ZM4.474,39.519a1.491,1.491,0,1,1-1.491,1.491A1.479,1.479,0,0,1,4.474,39.519Zm14.914,0A1.491,1.491,0,1,1,17.9,41.011,1.479,1.479,0,0,1,19.388,39.519Z" transform="translate(0 -32.063)"/>
    </g>
  </g>
</svg>
