<svg id="data_image_svg_xml_1_" data-name="data_image_svg+xml;… (1)" xmlns="http://www.w3.org/2000/svg" width="24" height="24" viewBox="0 0 24 24">
  <path id="Path_3086" data-name="Path 3086" d="M0,24V0H24V24Z" fill="none"/>
  <g id="Group_11029" data-name="Group 11029" transform="translate(1.5 2)">
    <path id="Path_3087" data-name="Path 3087" d="M13,21.5a2.261,2.261,0,0,0-2.25,2.25v12A2.261,2.261,0,0,0,13,38h3.75V36.5H13a.74.74,0,0,1-.75-.75V26h18v7.5h1.5V23.75A2.261,2.261,0,0,0,29.5,21.5ZM13,23H29.5a.74.74,0,0,1,.75.75v.75h-18v-.75A.74.74,0,0,1,13,23Zm2.25,6v1.5h1.5V29Zm3,0v1.5h9V29Zm-3,3v1.5h1.5V32Zm3,0v1.5h4.5V32Zm7.5,1.5c-4.277,0-6.645,4.119-6.645,4.119l-.234.393.243.387s2.467,4.1,6.636,4.1,6.636-4.1,6.636-4.1l.243-.387-.234-.393S30.027,33.5,25.75,33.5Zm0,1.5a6.348,6.348,0,0,1,5.021,2.991C30.336,38.6,28.533,41,25.75,41s-4.586-2.4-5.021-3.009A6.348,6.348,0,0,1,25.75,35Zm0,1.5a1.5,1.5,0,1,0,1.5,1.5A1.5,1.5,0,0,0,25.75,36.5Z" transform="translate(-10.75 -21.5)"/>
  </g>
</svg>
