<svg id="data_image_svg_xml_6_" data-name="data_image_svg+xml;… (6)" xmlns="http://www.w3.org/2000/svg" width="24" height="24" viewBox="0 0 24 24">
  <path id="Path_1365" data-name="Path 1365" d="M0,24V0H24V24Z" fill="none"/>
  <g id="Group_8582" data-name="Group 8582" transform="translate(1.5 4)">
    <path id="Path_1366" data-name="Path 1366" d="M13,21.5a2.258,2.258,0,0,0-2.25,2.25v12A2.258,2.258,0,0,0,13,38H29.5a2.258,2.258,0,0,0,2.25-2.25v-12A2.258,2.258,0,0,0,29.5,21.5ZM13,23H29.5a.545.545,0,0,1,.141.029L21.25,28.836l-8.391-5.807A.545.545,0,0,1,13,23Zm-.75,1.43,9,6.234,9-6.234V35.75a.74.74,0,0,1-.75.75H13a.74.74,0,0,1-.75-.75Z" transform="translate(-10.75 -21.5)"/>
  </g>
</svg>
