<svg id="data_image_svg_xml_" data-name="data_image_svg+xml;…" xmlns="http://www.w3.org/2000/svg" width="24" height="24" viewBox="0 0 24 24">
  <path id="Path_3052" data-name="Path 3052" d="M0,24V0H24V24Z" fill="none"/>
  <g id="Group_11012" data-name="Group 11012" transform="translate(2.5 2.535)">
    <path id="Path_3053" data-name="Path 3053" d="M29.154,11l-4.359,4.359L20.277,13.85l-4.488,4.863L11.3,17l-.533,1.4,5.443,2.068,4.512-4.887,4.482,1.488,5.016-5.016Zm-9.4,10.465v9h1.5v-9Zm9,0v9h1.5v-9Zm-12,1.5v7.5h1.5v-7.5Zm6,0v7.5h1.5v-7.5Zm-12,1.5v6h1.5v-6Zm3,0v6h1.5v-6Zm12,0v6h1.5v-6Z" transform="translate(-10.75 -11.002)"/>
  </g>
</svg>
