<svg id="data_image_svg_xml_" data-name="data_image_svg+xml;…" xmlns="http://www.w3.org/2000/svg" width="24" height="24" viewBox="0 0 24 24">
  <path id="Path_3088" data-name="Path 3088" d="M0,24V0H24V24Z" fill="none"/>
  <g id="Group_11030" data-name="Group 11030" transform="translate(1.5 4.5)">
    <path id="Path_3089" data-name="Path 3089" d="M30.25,45.75h-18a1.5,1.5,0,0,1-1.5-1.5v-3h.75a2.25,2.25,0,0,0,0-4.5h-.75v-3a1.5,1.5,0,0,1,1.5-1.5h18a1.5,1.5,0,0,1,1.5,1.5v3H31a2.25,2.25,0,0,0,0,4.5h.75v3A1.5,1.5,0,0,1,30.25,45.75Zm-18-3.076V44.25h18V42.674a3.75,3.75,0,0,1,0-7.348V33.75h-18v1.576a3.75,3.75,0,0,1,0,7.348Z" transform="translate(-10.75 -32.25)"/>
  </g>
</svg>
