<svg id="data_image_svg_xml_5_" data-name="data_image_svg+xml;… (5)" xmlns="http://www.w3.org/2000/svg" width="24" height="24" viewBox="0 0 24 24">
  <path id="Path_3062" data-name="Path 3062" d="M0,24V0H24V24Z" fill="none"/>
  <g id="Group_11017" data-name="Group 11017" transform="translate(1.006 1.006)">
    <path id="Path_3063" data-name="Path 3063" d="M11.221.042a1.522,1.522,0,0,0-1.072.437L.479,10.149a1.533,1.533,0,0,0,0,2.144l9.671,9.671a1.523,1.523,0,0,0,2.144,0l9.671-9.671a1.533,1.533,0,0,0,0-2.144L12.293.479A1.522,1.522,0,0,0,11.221.042Zm.012,1.491,9.676,9.676c.012.012.012.017,0,.029l-9.676,9.671c-.012.012-.017.012-.029,0L1.539,11.239c-.017-.017-.023-.017-.006-.029L11.2,1.539c.017-.017.017-.023.029-.006ZM6.747,10.475a.746.746,0,1,0,.746.746A.743.743,0,0,0,6.747,10.475Zm4.474,0a.746.746,0,1,0,.746.746A.743.743,0,0,0,11.221,10.475Zm4.474,0a.746.746,0,1,0,.746.746A.743.743,0,0,0,15.7,10.475Z" transform="translate(-0.042 -0.042)"/>
  </g>
</svg>
