<svg id="data_image_svg_xml_6_" data-name="data_image_svg+xml;… (6)" xmlns="http://www.w3.org/2000/svg" width="24" height="24" viewBox="0 0 24 24">
  <path id="Path_1394" data-name="Path 1394" d="M0,24V0H24V24Z" fill="none"/>
  <g id="Group_8593" data-name="Group 8593" transform="translate(1.5 2.5)">
    <path id="Path_1395" data-name="Path 1395" d="M18.25,10.75a4.5,4.5,0,1,0,4.5,4.5A4.509,4.509,0,0,0,18.25,10.75Zm0,9a7.514,7.514,0,0,0-7.5,7.5h1.5a5.989,5.989,0,0,1,6-6,5.917,5.917,0,0,1,3,.82v6.68a1.511,1.511,0,0,0,1.5,1.5h7.5a1.511,1.511,0,0,0,1.5-1.5v-7.5a1.511,1.511,0,0,0-1.5-1.5h-7.5a1.471,1.471,0,0,0-1.254.738,7.454,7.454,0,0,0-3.246-.738Zm0-7.5a3,3,0,1,1-3,3A2.991,2.991,0,0,1,18.25,12.25Zm4.5,9h7.5v1.5h-7.5Zm0,3h1.5v1.5h4.5v-1.5h1.5v4.5h-7.5Z" transform="translate(-10.75 -10.75)"/>
  </g>
</svg>
