<svg id="data_image_svg_xml_2_" data-name="data_image_svg+xml;… (2)" xmlns="http://www.w3.org/2000/svg" width="24" height="24" viewBox="0 0 24 24">
  <path id="Path_1386" data-name="Path 1386" d="M0,24V0H24V24Z" fill="none"/>
  <g id="Group_8589" data-name="Group 8589" transform="translate(4.5 3)">
    <path id="Path_1387" data-name="Path 1387" d="M34.5,21.5a2.258,2.258,0,0,0-2.25,2.25v13.5A2.258,2.258,0,0,0,34.5,39.5H45a2.258,2.258,0,0,0,2.25-2.25V23.75A2.258,2.258,0,0,0,45,21.5Zm0,1.5H45a.74.74,0,0,1,.75.75v13.5A.74.74,0,0,1,45,38H34.5a.74.74,0,0,1-.75-.75V23.75A.74.74,0,0,1,34.5,23Zm.75,3v1.5h9V26Zm0,4.5V32h6V30.5Zm7.5,0V32h1.5V30.5Zm-7.5,3V35h6V33.5Zm7.5,0V35h1.5V33.5Z" transform="translate(-32.25 -21.5)"/>
  </g>
</svg>
