<svg xmlns="http://www.w3.org/2000/svg" width="24" height="24" viewBox="0 0 24 24">
  <g id="data_image_svg_xml_" data-name="data_image_svg+xml;…" transform="translate(0 0)">
    <path id="Path_2774" data-name="Path 2774" d="M0,24V0H24V24Z" transform="translate(0 0)" fill="none"/>
    <g id="Group_10266" data-name="Group 10266" transform="translate(2.491 2)">
      <path id="Path_2775" data-name="Path 2775" d="M19.636,0V1.526a8.249,8.249,0,0,0-7.422,7.422H10.688v1.491H13.67c.006.163,0,.3,0,.466a2.36,2.36,0,0,0-.734.291,1.922,1.922,0,0,0-.757,1.48,3.3,3.3,0,0,0,.5,1.678,1.894,1.894,0,0,0,1.6,1.1,3.124,3.124,0,0,0,.408-.058,9.561,9.561,0,0,0,2.109,3.734,5.254,5.254,0,0,0,3.589,1.748,5.254,5.254,0,0,0,3.589-1.748,9.552,9.552,0,0,0,2.1-3.734,3.364,3.364,0,0,0,.414.058,1.9,1.9,0,0,0,1.6-1.1,3.355,3.355,0,0,0,.5-1.678,1.946,1.946,0,0,0-.752-1.486,2.534,2.534,0,0,0-.74-.285v-.466h2.983V8.948H28.543a8.238,8.238,0,0,0-7.416-7.422V0Zm0,3.058V5.965h1.491V3.058a6.687,6.687,0,0,1,5.89,5.89H13.746a6.687,6.687,0,0,1,5.89-5.89Zm-4.492,7.381H25.6v1.631l.7.047a1.114,1.114,0,0,1,.588.233.441.441,0,0,1,.2.326,2.309,2.309,0,0,1-.291.92c-.181.3-.373.367-.315.367a3.657,3.657,0,0,1-.629-.1l-.693-.175-.2.687a1.214,1.214,0,0,0-.047.14,8.024,8.024,0,0,1-2,3.565,3.936,3.936,0,0,1-2.528,1.3,3.96,3.96,0,0,1-2.534-1.3,8,8,0,0,1-2-3.559v-.006a.5.5,0,0,0-.047-.14l-.2-.687-.7.175a3.742,3.742,0,0,1-.629.1c.058,0-.134-.07-.315-.367a2.408,2.408,0,0,1-.291-.92.441.441,0,0,1,.2-.326,1.163,1.163,0,0,1,.588-.233l.781-.052-.087-.775a5.808,5.808,0,0,1-.012-.851Z" transform="translate(-10.688 0)"/>
    </g>
  </g>
</svg>
