<svg id="data_image_svg_xml_4_" data-name="data_image_svg+xml;… (4)" xmlns="http://www.w3.org/2000/svg" width="24" height="24" viewBox="0 0 24 24">
  <path id="Path_2782" data-name="Path 2782" d="M0,24V0H24V24Z" fill="none"/>
  <g id="Group_10270" data-name="Group 10270" transform="translate(2.983 3.983)">
    <path id="Path_2783" data-name="Path 2783" d="M22.121,21.375a.743.743,0,0,0-.746.746V25.1a.743.743,0,0,0,.746.746H25.1a.743.743,0,0,0,.746-.746V22.121a.743.743,0,0,0-.746-.746Zm.746,1.491h1.491v1.491H22.866Zm5.965,0v1.491H39.271V22.866ZM22.121,27.34a.743.743,0,0,0-.746.746v2.983a.743.743,0,0,0,.746.746H25.1a.743.743,0,0,0,.746-.746V28.086a.743.743,0,0,0-.746-.746Zm.746,1.491h1.491v1.491H22.866Zm5.965,0v1.491H39.271V28.832Zm-6.711,4.474a.743.743,0,0,0-.746.746v2.983a.743.743,0,0,0,.746.746H25.1a.743.743,0,0,0,.746-.746V34.052a.743.743,0,0,0-.746-.746Zm.746,1.491h1.491v1.491H22.866Zm5.965,0v1.491H39.271V34.8Z" transform="translate(-21.375 -21.375)"/>
  </g>
</svg>
