<svg id="data_image_svg_xml_" data-name="data_image_svg+xml;…" xmlns="http://www.w3.org/2000/svg" width="24" height="24" viewBox="0 0 24 24">
  <path id="Path_1475" data-name="Path 1475" d="M0,24V0H24V24Z" fill="none"/>
  <g id="Group_8625" data-name="Group 8625" transform="translate(2.983 2.983)">
    <path id="Path_1476" data-name="Path 1476" d="M23.612,21.375a2.245,2.245,0,0,0-2.237,2.237V37.034a2.245,2.245,0,0,0,2.237,2.237H37.034a2.245,2.245,0,0,0,2.237-2.237V23.612a2.245,2.245,0,0,0-2.237-2.237Zm0,1.491H37.034a.736.736,0,0,1,.746.746V37.034a.736.736,0,0,1-.746.746H23.612a.736.736,0,0,1-.746-.746V23.612a.736.736,0,0,1,.746-.746Zm2.237,10.439V34.8H34.8V33.305Z" transform="translate(-21.375 -21.375)"/>
  </g>
</svg>
