<svg id="data_image_svg_xml_2_" data-name="data_image_svg+xml;… (2)" xmlns="http://www.w3.org/2000/svg" width="24" height="24" viewBox="0 0 24 24">
  <path id="Path_3074" data-name="Path 3074" d="M0,24V0H24V24Z" fill="none"/>
  <g id="Group_11023" data-name="Group 11023" transform="translate(3 2.5)">
    <path id="Path_3075" data-name="Path 3075" d="M30.5,10.75a9.033,9.033,0,0,0-9,9V25a2.258,2.258,0,0,0,2.25,2.25h1.5A.748.748,0,0,0,26,26.5V22a.748.748,0,0,0-.75-.75H23v-1.5a7.5,7.5,0,0,1,15,0v1.5H35.75A.748.748,0,0,0,35,22v4.5a.748.748,0,0,0,.75.75h.615a2.229,2.229,0,0,1-2.115,1.5h-3a.75.75,0,0,0-.656.369.74.74,0,0,0,0,.762.75.75,0,0,0,.656.369h3a3.756,3.756,0,0,0,3.686-3.117A2.259,2.259,0,0,0,39.5,25V19.75a9.033,9.033,0,0,0-9-9Zm-7.5,12h1.5v3h-.75A.74.74,0,0,1,23,25Zm13.5,0H38V25a.741.741,0,0,1-.7.744.2.2,0,0,0-.059-.006.718.718,0,0,0-.111.012H36.5Z" transform="translate(-21.5 -10.75)"/>
  </g>
</svg>
