<svg id="data_image_svg_xml_3_" data-name="data_image_svg+xml;… (3)" xmlns="http://www.w3.org/2000/svg" width="24" height="24" viewBox="0 0 24 24">
  <path id="Path_2780" data-name="Path 2780" d="M0,24V0H24V24Z" fill="none"/>
  <g id="Group_10269" data-name="Group 10269" transform="translate(3.983 3.983)">
    <path id="Path_2781" data-name="Path 2781" d="M22.121,21.375a.746.746,0,0,0-.746.746V25.1a.746.746,0,0,0,.746.746H25.1a.746.746,0,0,0,.746-.746V22.121a.746.746,0,0,0-.746-.746Zm5.965,0a.746.746,0,0,0-.746.746V25.1a.746.746,0,0,0,.746.746h2.983a.746.746,0,0,0,.746-.746V22.121a.746.746,0,0,0-.746-.746Zm5.965,0a.746.746,0,0,0-.746.746V25.1a.746.746,0,0,0,.746.746h2.983a.746.746,0,0,0,.746-.746V22.121a.746.746,0,0,0-.746-.746ZM22.866,22.866h1.491v1.491H22.866Zm5.965,0h1.491v1.491H28.832Zm5.965,0h1.491v1.491H34.8ZM22.121,27.34a.746.746,0,0,0-.746.746v2.983a.746.746,0,0,0,.746.746H25.1a.746.746,0,0,0,.746-.746V28.086a.746.746,0,0,0-.746-.746Zm5.965,0a.746.746,0,0,0-.746.746v2.983a.746.746,0,0,0,.746.746h2.983a.746.746,0,0,0,.746-.746V28.086a.746.746,0,0,0-.746-.746Zm5.965,0a.746.746,0,0,0-.746.746v2.983a.746.746,0,0,0,.746.746h2.983a.746.746,0,0,0,.746-.746V28.086a.746.746,0,0,0-.746-.746ZM22.866,28.832h1.491v1.491H22.866Zm5.965,0h1.491v1.491H28.832Zm5.965,0h1.491v1.491H34.8ZM22.121,33.306a.746.746,0,0,0-.746.746v2.983a.746.746,0,0,0,.746.746H25.1a.746.746,0,0,0,.746-.746V34.052a.746.746,0,0,0-.746-.746Zm5.965,0a.746.746,0,0,0-.746.746v2.983a.746.746,0,0,0,.746.746h2.983a.746.746,0,0,0,.746-.746V34.052a.746.746,0,0,0-.746-.746Zm5.965,0a.746.746,0,0,0-.746.746v2.983a.746.746,0,0,0,.746.746h2.983a.746.746,0,0,0,.746-.746V34.052a.746.746,0,0,0-.746-.746ZM22.866,34.8h1.491v1.491H22.866Zm5.965,0h1.491v1.491H28.832Zm5.965,0h1.491v1.491H34.8Z" transform="translate(-21.375 -21.375)"/>
  </g>
</svg>
