<svg id="data_image_svg_xml_" data-name="data_image_svg+xml;…" xmlns="http://www.w3.org/2000/svg" width="24" height="24" viewBox="0 0 24 24">
  <path id="Path_3066" data-name="Path 3066" d="M0,24V0H24V24Z" fill="none"/>
  <g id="Group_11019" data-name="Group 11019" transform="translate(4.474 2.983)">
    <path id="Path_3067" data-name="Path 3067" d="M39.519,21.375a4.474,4.474,0,1,0,4.474,4.474A4.483,4.483,0,0,0,39.519,21.375Zm0,8.948a7.464,7.464,0,0,0-7.457,7.457h1.491A5.919,5.919,0,0,1,41.587,32.2a6.475,6.475,0,0,1,1.375-1,7.339,7.339,0,0,0-3.443-.885Zm0-7.457a2.983,2.983,0,1,1-2.983,2.983A2.974,2.974,0,0,1,39.519,22.866Zm5.965,8.948v1.573a3.784,3.784,0,0,0-1.3.548l-1.118-1.118-1.054,1.054,1.118,1.118a3.685,3.685,0,0,0-.553,1.3H41.01V37.78h1.567a3.747,3.747,0,0,0,.553,1.3L42.012,40.2l1.054,1.054,1.118-1.118a3.784,3.784,0,0,0,1.3.548v1.573h1.491V40.686a3.658,3.658,0,0,0,1.3-.548l1.113,1.113L50.448,40.2l-1.113-1.113a3.7,3.7,0,0,0,.548-1.3H51.45V36.288H49.883a3.658,3.658,0,0,0-.548-1.3l1.113-1.113-1.054-1.054-1.113,1.113a3.7,3.7,0,0,0-1.3-.548V31.814ZM46.23,34.8a2.237,2.237,0,1,1-2.237,2.237A2.223,2.223,0,0,1,46.23,34.8Z" transform="translate(-32.063 -21.375)"/>
  </g>
</svg>
