<svg id="data_image_svg_xml_1_" data-name="data_image_svg+xml;… (1)" xmlns="http://www.w3.org/2000/svg" width="24" height="24" viewBox="0 0 24 24">
  <path id="Path_3080" data-name="Path 3080" d="M0,24V0H24V24Z" fill="none"/>
  <g id="Group_11026" data-name="Group 11026" transform="translate(1 5.5)">
    <path id="Path_3081" data-name="Path 3081" d="M2.25,32.25A2.258,2.258,0,0,0,0,34.5v9a2.258,2.258,0,0,0,2.25,2.25h18A2.258,2.258,0,0,0,22.5,43.5v-9a2.258,2.258,0,0,0-2.25-2.25Zm0,1.5h18a.74.74,0,0,1,.75.75v9a.74.74,0,0,1-.75.75h-18a.74.74,0,0,1-.75-.75v-9A.74.74,0,0,1,2.25,33.75ZM3,35.25v1.5H4.5v-1.5Zm3,0v1.5H7.5v-1.5Zm3,0v1.5h1.5v-1.5Zm3,0v1.5h1.5v-1.5Zm3,0v1.5h1.5v-1.5Zm3,0v1.5h1.5v-1.5Zm-15,3v1.5H4.5v-1.5Zm3,0v1.5H7.5v-1.5Zm3,0v1.5h1.5v-1.5Zm3,0v1.5h1.5v-1.5Zm3,0v1.5h1.5v-1.5Zm3,0v1.5h1.5v-1.5Zm-10.5,3v1.5H15v-1.5ZM3,41.262v1.506H6V41.262Zm13.523,0v1.506h3V41.262Z" transform="translate(0 -32.25)"/>
  </g>
</svg>
