<svg id="data_image_svg_xml_1_" data-name="data_image_svg+xml;… (1)" xmlns="http://www.w3.org/2000/svg" width="24" height="24" viewBox="0 0 24 24">
  <path id="Path_1384" data-name="Path 1384" d="M0,24V0H24V24Z" fill="none"/>
  <g id="Group_8588" data-name="Group 8588" transform="translate(3 3)">
    <path id="Path_1385" data-name="Path 1385" d="M23.75,21.5a2.258,2.258,0,0,0-2.25,2.25v13.5a2.258,2.258,0,0,0,2.25,2.25h13.5a2.258,2.258,0,0,0,2.25-2.25V23.75a2.258,2.258,0,0,0-2.25-2.25Zm0,1.5h13.5a.74.74,0,0,1,.75.75v13.5a.74.74,0,0,1-.75.75H23.75a.74.74,0,0,1-.75-.75V23.75A.74.74,0,0,1,23.75,23ZM35.4,26.035l-6.4,6.4-3.41-3.4L24.535,30.09,29,34.561l7.471-7.471Z" transform="translate(-21.5 -21.5)"/>
  </g>
</svg>
