<svg id="data_image_svg_xml_1_" data-name="data_image_svg+xml;… (1)" xmlns="http://www.w3.org/2000/svg" width="24" height="24" viewBox="0 0 24 24">
  <path id="Path_2802" data-name="Path 2802" d="M0,24V0H24V24Z" fill="none"/>
  <g id="Group_10794" data-name="Group 10794" transform="translate(3.983 2.491)">
    <path id="Path_2803" data-name="Path 2803" d="M23.612,10.687a2.245,2.245,0,0,0-2.237,2.237V27.838a2.245,2.245,0,0,0,2.237,2.237H35.543a2.245,2.245,0,0,0,2.237-2.237V12.925a2.245,2.245,0,0,0-2.237-2.237Zm0,1.491H35.543a.736.736,0,0,1,.746.746V27.838a.736.736,0,0,1-.746.746H23.612a.736.736,0,0,1-.746-.746V12.925A.736.736,0,0,1,23.612,12.179Zm2.237,2.983v1.491h7.457V15.162Zm0,2.983v1.491h4.474V18.144Zm0,2.983v1.491h7.457V21.127Zm3.728,2.983a2.245,2.245,0,0,0-2.237,2.237v.746h1.491v-.746a.746.746,0,1,1,1.491,0v.746h1.491v-.746a2.245,2.245,0,0,0-2.237-2.237Z" transform="translate(-21.375 -10.687)"/>
  </g>
</svg>
