<svg id="data_image_svg_xml_1_" data-name="data_image_svg+xml;… (1)" xmlns="http://www.w3.org/2000/svg" width="24" height="24" viewBox="0 0 24 24">
  <path id="Path_2776" data-name="Path 2776" d="M0,24V0H24V24Z" fill="none"/>
  <g id="Group_10267" data-name="Group 10267" transform="translate(1.909 1.909)">
    <path id="Path_2777" data-name="Path 2777" d="M16.066,13.68a2.393,2.393,0,0,0-2.386,2.386V31.338a2.393,2.393,0,0,0,2.386,2.386H31.338a2.393,2.393,0,0,0,2.386-2.386V16.066a2.393,2.393,0,0,0-2.386-2.386Zm0,.954h3.14a9.134,9.134,0,0,0,.158,13.048,1.827,1.827,0,0,1-.115,1.16,1.61,1.61,0,0,1-.95,1,.476.476,0,0,0-.324.483.483.483,0,0,0,.382.439A4.422,4.422,0,0,0,21.33,30.3a1.9,1.9,0,0,1,1.723-.229,11.606,11.606,0,0,0,4.228.788,11.455,11.455,0,0,0,5.488-1.378v1.855a1.425,1.425,0,0,1-1.432,1.432H16.066a1.425,1.425,0,0,1-1.432-1.432V16.066a1.425,1.425,0,0,1,1.432-1.432Zm11.454,4.3a.479.479,0,0,1,.477.477v4.3a.477.477,0,0,1-.954,0v-4.3A.479.479,0,0,1,27.52,18.93Zm-7.159.477h2.386a.476.476,0,0,1,.405.73l-1.932,3.088h1.527a.477.477,0,1,1,0,.954H20.361a.476.476,0,0,1-.405-.73l1.932-3.088H20.361a.477.477,0,0,1,0-.954ZM24.9,20.839a1.667,1.667,0,0,1,.806.214.469.469,0,0,1,.387-.214.479.479,0,0,1,.477.477V23.7a.479.479,0,0,1-.477.477.469.469,0,0,1-.387-.214,1.668,1.668,0,1,1-.806-3.126Zm5.25,0a1.67,1.67,0,1,1-1.67,1.67A1.672,1.672,0,0,1,30.145,20.839Zm-5.25.954a.722.722,0,0,0-.144.015.712.712,0,0,0-.556.556.707.707,0,0,0,0,.289.707.707,0,0,0,.041.134.716.716,0,1,0,.66-.995Zm5.25,0a.722.722,0,0,0-.144.015.707.707,0,0,0-.134.041.724.724,0,0,0-.381.381.707.707,0,0,0-.041.134.707.707,0,0,0,0,.289.707.707,0,0,0,.041.134.716.716,0,0,0,.381.381A.707.707,0,0,0,30,23.21a.707.707,0,0,0,.289,0,.716.716,0,0,0-.144-1.417Z" transform="translate(-13.68 -13.68)"/>
  </g>
</svg>
