<svg id="data_image_svg_xml_1_" data-name="data_image_svg+xml;… (1)" xmlns="http://www.w3.org/2000/svg" width="24" height="24" viewBox="0 0 24 24">
  <path id="Path_1457" data-name="Path 1457" d="M0,24V0H24V24Z" fill="none"/>
  <g id="Group_8616" data-name="Group 8616" transform="translate(2.944 1.5)">
    <path id="Path_1458" data-name="Path 1458" d="M27.886,10.75A6.88,6.88,0,0,0,23.7,12.062l-.908.68.981.568A2.241,2.241,0,0,1,22.657,17.5a2.293,2.293,0,0,1-.53-.07L21.1,17.184l.105,1.049a8.89,8.89,0,0,0,1.113,3.255,12.618,12.618,0,0,1,1.228,2.93c.351,1.483.606,3.173,1.017,4.562a5.971,5.971,0,0,0,.82,1.837,2.131,2.131,0,0,0,1.679.935,1.613,1.613,0,0,0,.973-.287,1.481,1.481,0,0,0,.521-.809,6.388,6.388,0,0,0,.1-1.717,15.044,15.044,0,0,1,.908-4.67.614.614,0,0,1,1.178,0h0a17.206,17.206,0,0,1,.908,4.857,5.778,5.778,0,0,0,.062,1.623,1.372,1.372,0,0,0,.592.794,1.787,1.787,0,0,0,.94.208,2.129,2.129,0,0,0,1.685-.958,6.136,6.136,0,0,0,.814-1.854c.41-1.4.665-3.093,1.014-4.515v0l0,0a13.677,13.677,0,0,1,1.354-3.152A7.78,7.78,0,0,0,39.157,17.6a6.978,6.978,0,0,0-1.808-4.916,6.666,6.666,0,0,0-4.922-1.934,7.946,7.946,0,0,0-2.271.334,7.934,7.934,0,0,0-2.271-.334Zm0,1.5a6.63,6.63,0,0,1,2.021.284l.249.088.249-.088a6.628,6.628,0,0,1,2.021-.284,5.106,5.106,0,0,1,3.841,1.471A5.453,5.453,0,0,1,37.657,17.6a6.216,6.216,0,0,1-.873,2.982,14.727,14.727,0,0,0-1.477,3.483v0s0,0,0,.006c-.372,1.517-.63,3.2-.993,4.441a5.121,5.121,0,0,1-.6,1.409c-.2.284-.3.325-.463.325-.084,0-.052,0-.085,0-.01-.116-.009-.494-.009-1.122a18.628,18.628,0,0,0-.961-5.259l0-.006v0a2.118,2.118,0,0,0-4.069,0,16.547,16.547,0,0,0-.964,5.08,9.086,9.086,0,0,1-.05,1.318s.034-.006-.047-.006c-.174,0-.267-.042-.466-.316A4.917,4.917,0,0,1,26,28.554c-.362-1.225-.622-2.912-.993-4.479v0a13.834,13.834,0,0,0-1.356-3.27,9.37,9.37,0,0,1-.677-1.934,3.7,3.7,0,0,0,3.431-3.618,3.584,3.584,0,0,0-.9-2.268,5.023,5.023,0,0,1,2.376-.732Z" transform="translate(-21.101 -10.75)"/>
  </g>
</svg>
