<svg id="data_image_svg_xml_" data-name="data_image_svg+xml;…" xmlns="http://www.w3.org/2000/svg" width="24" height="24" viewBox="0 0 24 24">
  <path id="Path_3056" data-name="Path 3056" d="M0,24V0H24V24Z" fill="none"/>
  <g id="Group_11014" data-name="Group 11014" transform="translate(1.491 2.491)">
    <path id="Path_3057" data-name="Path 3057" d="M21.127,10.687a2.978,2.978,0,0,0-2.109,5.086v.006a4.021,4.021,0,0,0-.885.781,2.977,2.977,0,1,0-5.115,2.155,4.466,4.466,0,0,0-2.33,3.9h1.491A2.984,2.984,0,0,1,16.95,20.23l1.194.9V19.636a2.983,2.983,0,0,1,5.965,0v1.491l1.194-.9a2.984,2.984,0,0,1,4.771,2.388h1.491a4.466,4.466,0,0,0-2.33-3.9,2.978,2.978,0,1,0-5.121-2.155,3.891,3.891,0,0,0-.88-.786,2.978,2.978,0,0,0-2.109-5.086Zm0,1.491a1.491,1.491,0,1,1-1.491,1.491A1.479,1.479,0,0,1,21.127,12.179Zm-5.965,2.983a1.491,1.491,0,1,1-1.491,1.491A1.479,1.479,0,0,1,15.162,15.162Zm11.931,0A1.491,1.491,0,1,1,25.6,16.653,1.479,1.479,0,0,1,27.092,15.162ZM16.653,21.127a2.975,2.975,0,0,0-2.144,5.045,4.466,4.466,0,0,0-2.33,3.9H13.67a2.983,2.983,0,0,1,5.965,0h1.491a4.466,4.466,0,0,0-2.33-3.9,2.975,2.975,0,0,0-2.144-5.045Zm4.474,8.948h1.491a2.983,2.983,0,0,1,5.965,0h1.491a4.466,4.466,0,0,0-2.33-3.9,2.983,2.983,0,1,0-4.288,0,4.466,4.466,0,0,0-2.33,3.9Zm-4.474-7.457a1.491,1.491,0,1,1-1.491,1.491A1.479,1.479,0,0,1,16.653,22.618Zm8.948,0A1.491,1.491,0,1,1,24.11,24.11,1.479,1.479,0,0,1,25.6,22.618Z" transform="translate(-10.688 -10.687)"/>
  </g>
</svg>
