<svg id="data_image_svg_xml_9_" data-name="data_image_svg+xml;… (9)" xmlns="http://www.w3.org/2000/svg" width="24" height="24" viewBox="0 0 24 24">
  <path id="Path_1371" data-name="Path 1371" d="M0,24V0H24V24Z" fill="none"/>
  <g id="Group_8585" data-name="Group 8585" transform="translate(2.5 2)">
    <path id="Path_1372" data-name="Path 1372" d="M13,21.5a2.258,2.258,0,0,0-2.25,2.25v12A2.258,2.258,0,0,0,13,38h2.25v3.65L20.729,38H28a2.258,2.258,0,0,0,2.25-2.25v-12A2.258,2.258,0,0,0,28,21.5ZM13,23H28a.74.74,0,0,1,.75.75v12a.74.74,0,0,1-.75.75H20.271L16.75,38.85V36.5H13a.74.74,0,0,1-.75-.75v-12A.74.74,0,0,1,13,23Zm2.25,6v1.5h1.5V29Zm4.5,0v1.5h1.5V29Zm4.5,0v1.5h1.5V29Z" transform="translate(-10.75 -21.5)"/>
  </g>
</svg>
