<svg id="data_image_svg_xml_" data-name="data_image_svg+xml;…" xmlns="http://www.w3.org/2000/svg" width="24" height="24" viewBox="0 0 24 24">
  <path id="Path_3078" data-name="Path 3078" d="M0,24V0H24V24Z" fill="none"/>
  <g id="Group_11025" data-name="Group 11025" transform="translate(2.5 2)">
    <path id="Path_3079" data-name="Path 3079" d="M34.5,21.5a2.261,2.261,0,0,0-2.25,2.25v13.5A2.261,2.261,0,0,0,34.5,39.5h4.893A6.741,6.741,0,1,0,47.25,29.413V26.439L42.311,21.5Zm0,1.5h6.75v4.5h4.5v1.576A6.587,6.587,0,0,0,45,29a6.587,6.587,0,0,0-.75.076V29h-6v1.5h2.561A6.794,6.794,0,0,0,39.393,32H38.25v1.5h.413a6.334,6.334,0,0,0,0,4.5H34.5a.74.74,0,0,1-.75-.75V23.75A.74.74,0,0,1,34.5,23Zm8.25,1.061L44.689,26H42.75ZM35.25,29v1.5h1.5V29ZM45,30.5a5.25,5.25,0,1,1-5.25,5.25A5.239,5.239,0,0,1,45,30.5ZM35.25,32v1.5h1.5V32Zm9,0v3h-3v1.5h3v3h1.5v-3h3V35h-3V32Z" transform="translate(-32.25 -21.5)"/>
  </g>
</svg>
