<svg id="data_image_svg_xml_" data-name="data_image_svg+xml;…" xmlns="http://www.w3.org/2000/svg" width="24" height="24" viewBox="0 0 24 24">
  <path id="Path_1451" data-name="Path 1451" d="M0,24V0H24V24Z" fill="none"/>
  <g id="Group_8613" data-name="Group 8613" transform="translate(2.5 2.5)">
    <path id="Path_1452" data-name="Path 1452" d="M14.5,10.75a3.761,3.761,0,0,0-3.75,3.75v12a3.761,3.761,0,0,0,3.75,3.75h12a3.761,3.761,0,0,0,3.75-3.75v-12a3.761,3.761,0,0,0-3.75-3.75Zm0,1.5h12a2.237,2.237,0,0,1,2.25,2.25v12a2.237,2.237,0,0,1-2.25,2.25H24.106V22.7H26.2l.313-2.414H24.106V18.748c0-.7.195-1.175,1.2-1.175H26.6V15.414a17.362,17.362,0,0,0-1.878-.094A2.916,2.916,0,0,0,21.6,18.508v1.778L19.75,20.28v2.414L21.6,22.7v6.05H14.5a2.237,2.237,0,0,1-2.25-2.25v-12a2.237,2.237,0,0,1,2.25-2.25Z" transform="translate(-10.75 -10.75)"/>
  </g>
</svg>
