<svg id="data_image_svg_xml_5_" data-name="data_image_svg+xml;… (5)" xmlns="http://www.w3.org/2000/svg" width="24" height="24" viewBox="0 0 24 24">
  <path id="Path_1332" data-name="Path 1332" d="M0,24V0H24V24Z" fill="none"/>
  <g id="Group_8571" data-name="Group 8571" transform="translate(2.5 2.5)">
    <path id="Path_1333" data-name="Path 1333" d="M13.75,10.75v1.5H13a2.258,2.258,0,0,0-2.25,2.25V28A2.258,2.258,0,0,0,13,30.25H28A2.258,2.258,0,0,0,30.25,28V14.5A2.258,2.258,0,0,0,28,12.25h-.75v-1.5h-1.5v1.5H15.25v-1.5Zm-.75,3h.75v1.5h1.5v-1.5h10.5v1.5h1.5v-1.5H28a.74.74,0,0,1,.75.75v2.25H12.25V14.5A.74.74,0,0,1,13,13.75Zm-.75,4.5h16.5V28a.74.74,0,0,1-.75.75H13a.74.74,0,0,1-.75-.75Zm4.5,1.5v1.5h1.5v-1.5Zm3,0v1.5h1.5v-1.5Zm3,0v1.5h1.5v-1.5Zm3,0v1.5h1.5v-1.5Zm-12,3v1.5h1.5v-1.5Zm3,0v1.5h1.5v-1.5Zm3,0v1.5h1.5v-1.5Zm3,0v1.5h1.5v-1.5Zm3,0v1.5h1.5v-1.5Zm-12,3v1.5h1.5v-1.5Zm3,0v1.5h1.5v-1.5Zm3,0v1.5h1.5v-1.5Z" transform="translate(-10.75 -10.75)"/>
  </g>
</svg>
