<svg id="data_image_svg_xml_8_" data-name="data_image_svg+xml;… (8)" xmlns="http://www.w3.org/2000/svg" width="24" height="24" viewBox="0 0 24 24">
  <path id="Path_1369" data-name="Path 1369" d="M0,24V0H24V24Z" fill="none"/>
  <g id="Group_8584" data-name="Group 8584" transform="translate(2.5 3.006)">
    <path id="Path_1370" data-name="Path 1370" d="M17.5,21.542a2.244,2.244,0,0,0-1.591,3.835,3.547,3.547,0,0,0,1.046.659H13a2.1,2.1,0,0,0-2.25,1.939V37.6A2.106,2.106,0,0,0,13,39.536H28A2.1,2.1,0,0,0,30.25,37.6V27.976A2.1,2.1,0,0,0,28,26.036H24.045a3.547,3.547,0,0,0,1.046-.659A2.25,2.25,0,0,0,21.909,22.2a4.393,4.393,0,0,0-.7,1.046c-.232.417-.478.9-.706,1.371-.228-.467-.474-.954-.706-1.371a4.393,4.393,0,0,0-.7-1.046,2.236,2.236,0,0,0-1.591-.653Zm0,1.491a.745.745,0,0,1,.53.223,7.763,7.763,0,0,1,.454.715c.216.388.46.869.686,1.333l.047.1c-.074-.03-.071-.024-.146-.056-.486-.2-.987-.423-1.389-.621s-.74-.435-.712-.407a.753.753,0,0,1,.53-1.283Zm6,0a.747.747,0,0,1,.53.223.74.74,0,0,1,0,1.061c.028-.028-.31.21-.712.407s-.9.419-1.389.621c-.075.031-.072.025-.146.056l.047-.1c.226-.464.47-.945.686-1.333a7.762,7.762,0,0,1,.454-.715.747.747,0,0,1,.53-.223ZM13,27.536h6.75v4.5h-7.5V27.976C12.25,27.833,12.494,27.536,13,27.536Zm8.25,0H28c.507,0,.75.294.75.439v4.061h-7.5Zm-9,6h7.5v4.5H13c-.508,0-.75-.294-.75-.439Zm9,0h7.5V37.6c0,.143-.244.439-.75.439H21.25Z" transform="translate(-10.75 -21.542)"/>
  </g>
</svg>
