<svg id="data_image_svg_xml_" data-name="data_image_svg+xml;…" xmlns="http://www.w3.org/2000/svg" width="24" height="24" viewBox="0 0 24 24">
  <path id="Path_1491" data-name="Path 1491" d="M0,24V0H24V24Z" fill="none"/>
  <g id="Group_8633" data-name="Group 8633" transform="translate(1.491 2.983)">
    <path id="Path_1492" data-name="Path 1492" d="M21.127,21.375a51.033,51.033,0,0,0-7.369.559,3.186,3.186,0,0,0-2.651,2.592,30.619,30.619,0,0,0,0,10.1,3.193,3.193,0,0,0,2.651,2.592,51.324,51.324,0,0,0,7.369.559,51.23,51.23,0,0,0,7.363-.559H28.5a3.186,3.186,0,0,0,2.651-2.592,29.1,29.1,0,0,0,.419-5.051,28.322,28.322,0,0,0-.425-5.051A3.173,3.173,0,0,0,28.5,21.934,51.033,51.033,0,0,0,21.127,21.375Zm0,1.491a49.425,49.425,0,0,1,7.148.542,1.688,1.688,0,0,1,1.4,1.381,27.221,27.221,0,0,1,.4,4.788,27.775,27.775,0,0,1-.4,4.783,1.688,1.688,0,0,1-1.4,1.386,50.655,50.655,0,0,1-7.148.542,50.58,50.58,0,0,1-7.148-.542,1.694,1.694,0,0,1-1.4-1.386,29.105,29.105,0,0,1,0-9.571,1.675,1.675,0,0,1,1.4-1.375h.006a49.275,49.275,0,0,1,7.148-.548Zm-2.983,2.983v7.457L25.6,29.577Z" transform="translate(-10.687 -21.375)"/>
  </g>
</svg>
