<svg id="data_image_svg_xml_11_" data-name="data_image_svg+xml;… (11)" xmlns="http://www.w3.org/2000/svg" width="24" height="24" viewBox="0 0 24 24">
  <path id="Path_227" data-name="Path 227" d="M0,24V0H24V24Z" fill="none"/>
  <g id="Group_7628" data-name="Group 7628" transform="translate(3 3)">
    <path id="Path_228" data-name="Path 228" d="M23.75,21.5a2.258,2.258,0,0,0-2.25,2.25v13.5a2.258,2.258,0,0,0,2.25,2.25h13.5a2.258,2.258,0,0,0,2.25-2.25V23.75a2.258,2.258,0,0,0-2.25-2.25Zm0,1.5h13.5a.74.74,0,0,1,.75.75v13.5a.74.74,0,0,1-.75.75H23.75a.74.74,0,0,1-.75-.75V23.75A.74.74,0,0,1,23.75,23Z" transform="translate(-21.5 -21.5)"/>
  </g>
</svg>
