<svg id="data_image_svg_xml_10_" data-name="data_image_svg+xml;… (10)" xmlns="http://www.w3.org/2000/svg" width="24" height="24" viewBox="0 0 24 24">
  <path id="Path_1483" data-name="Path 1483" d="M0,24V0H24V24Z" fill="none"/>
  <g id="Group_8629" data-name="Group 8629" transform="translate(2.5 1.5)">
    <path id="Path_1484" data-name="Path 1484" d="M20.5,10.75a9.564,9.564,0,0,0-9.75,9.34,8.573,8.573,0,0,0,3,6.645V30.9l3.75-2.5a18.648,18.648,0,0,0,3,.352,10.539,10.539,0,0,0,6.85-2.355,8.152,8.152,0,0,0,2.9-6.3,9.564,9.564,0,0,0-9.75-9.34Zm0,1.5a8.044,8.044,0,0,1,8.25,7.84,6.571,6.571,0,0,1-2.373,5.162,9.048,9.048,0,0,1-5.877,2,21.335,21.335,0,0,1-3.082-.369l-.281-.035L15.25,28.1V26.137l-.281-.223A6.955,6.955,0,0,1,12.25,20.09a8.044,8.044,0,0,1,8.25-7.84Zm-2.25,6-4.5,4.5,4.5-1.5,4.5,1.5,4.5-4.5-4.5,1.5Z" transform="translate(-10.75 -10.75)"/>
  </g>
</svg>
