<svg id="data_image_svg_xml_10_" data-name="data_image_svg+xml;… (10)" xmlns="http://www.w3.org/2000/svg" width="24" height="24" viewBox="0 0 24 24">
  <path id="Path_1373" data-name="Path 1373" d="M0,24V0H24V24Z" fill="none"/>
  <g id="Group_8586" data-name="Group 8586" transform="translate(1.5 5.5)">
    <path id="Path_1374" data-name="Path 1374" d="M13,32.25a2.258,2.258,0,0,0-2.25,2.25v9A2.258,2.258,0,0,0,13,45.75H25.316a2.186,2.186,0,0,0,1.588-.686l4.213-4.453a2.356,2.356,0,0,0,0-3.223L26.9,32.941a2.172,2.172,0,0,0-1.588-.691Zm0,1.5H25.322a.662.662,0,0,1,.492.223l4.213,4.447a.876.876,0,0,1,0,1.16l-4.213,4.453a.656.656,0,0,1-.492.217H13a.748.748,0,0,1-.75-.75v-9a.748.748,0,0,1,.75-.75Zm13.5,4.5a.75.75,0,1,0,.75.75A.748.748,0,0,0,26.5,38.25Z" transform="translate(-10.75 -32.25)"/>
  </g>
</svg>
