<svg id="data_image_svg_xml_1_" data-name="data_image_svg+xml;… (1)" xmlns="http://www.w3.org/2000/svg" width="24" height="24" viewBox="0 0 24 24">
  <path id="Path_3054" data-name="Path 3054" d="M0,24V0H24V24Z" fill="none"/>
  <g id="Group_11013" data-name="Group 11013" transform="translate(2.983 3.983)">
    <path id="Path_3055" data-name="Path 3055" d="M28.086,21.375A3.713,3.713,0,0,0,26.3,28.354,6.714,6.714,0,0,0,21.375,34.8h1.491a5.194,5.194,0,0,1,9.006-3.554,3.111,3.111,0,0,0-.058.571,2.987,2.987,0,0,0,.839,2.062,4.466,4.466,0,0,0-2.33,3.9h1.491a2.983,2.983,0,0,1,5.965,0h1.491a4.466,4.466,0,0,0-2.33-3.9A2.975,2.975,0,0,0,34.8,28.832a2.952,2.952,0,0,0-2.208,1,6.674,6.674,0,0,0-2.7-1.491,3.714,3.714,0,0,0-1.806-6.967Zm0,1.491A2.237,2.237,0,1,1,25.849,25.1a2.223,2.223,0,0,1,2.237-2.237ZM34.8,30.323a1.491,1.491,0,1,1-1.491,1.491A1.479,1.479,0,0,1,34.8,30.323Z" transform="translate(-21.375 -21.375)"/>
  </g>
</svg>
