<svg id="data_image_svg_xml_5_" data-name="data_image_svg+xml;… (5)" xmlns="http://www.w3.org/2000/svg" width="24" height="24" viewBox="0 0 24 24">
  <path id="Path_1363" data-name="Path 1363" d="M0,24V0H24V24Z" fill="none"/>
  <g id="Group_8581" data-name="Group 8581" transform="translate(1.5 2.25)">
    <path id="Path_1364" data-name="Path 1364" d="M3.75,10.75A2.258,2.258,0,0,0,1.5,13v3.75H3V13a.74.74,0,0,1,.75-.75h15a.74.74,0,0,1,.75.75V28a.74.74,0,0,1-.75.75h-15A.74.74,0,0,1,3,28V24.25H1.5V28a2.258,2.258,0,0,0,2.25,2.25h15A2.258,2.258,0,0,0,21,28V13a2.258,2.258,0,0,0-2.25-2.25Zm6.34,4.535L9.035,16.34l3.4,3.41H0v1.5H12.439l-3.4,3.4,1.055,1.066L15.311,20.5Z" transform="translate(0 -10.75)"/>
  </g>
</svg>
