<svg id="data_image_svg_xml_1_" data-name="data_image_svg+xml;… (1)" xmlns="http://www.w3.org/2000/svg" width="24" height="24" viewBox="0 0 24 24">
  <path id="Path_1324" data-name="Path 1324" d="M0,24V0H24V24Z" fill="none"/>
  <g id="Group_8567" data-name="Group 8567" transform="translate(2.5 2.5)">
    <path id="Path_1325" data-name="Path 1325" d="M20.5,10.75a9.75,9.75,0,1,0,9.75,9.75A9.765,9.765,0,0,0,20.5,10.75Zm0,1.5a8.25,8.25,0,1,1-8.25,8.25A8.24,8.24,0,0,1,20.5,12.25Zm0,6a2.25,2.25,0,1,0,2.25,2.25A2.258,2.258,0,0,0,20.5,18.25Zm0,1.5a.75.75,0,1,1-.75.75A.74.74,0,0,1,20.5,19.75Z" transform="translate(-10.75 -10.75)"/>
  </g>
</svg>
