<svg id="data_image_svg_xml_2_" data-name="data_image_svg+xml;… (2)" xmlns="http://www.w3.org/2000/svg" width="24" height="24" viewBox="0 0 24 24">
  <path id="Path_1479" data-name="Path 1479" d="M0,24V0H24V24Z" fill="none"/>
  <g id="Group_8627" data-name="Group 8627" transform="translate(4.474 2.491)">
    <path id="Path_1480" data-name="Path 1480" d="M32.808,10.688a.746.746,0,0,0-.746.746V24.855a.746.746,0,0,0,.746.746h3.728v3.728a.746.746,0,0,0,.746.746h4.474a.746.746,0,0,0,.746-.746V25.6H46.23a.746.746,0,0,0,.746-.746V11.433a.746.746,0,0,0-.746-.746H32.808Zm.746,1.491h2.983v2.983H33.554Zm4.474,0H41.01v2.983H38.028Zm4.474,0h2.983v2.983H42.5Zm-8.948,4.474h2.983v2.983H33.554Zm4.474,0H41.01v2.983H38.028Zm4.474,0h2.983v2.983H42.5Zm-8.948,4.474h2.983v2.983H33.554Zm4.474,0H41.01v2.983H38.028Zm4.474,0h2.983v2.983H42.5ZM38.028,25.6H41.01v2.983H38.028Z" transform="translate(-32.063 -10.688)"/>
  </g>
</svg>
