<svg id="data_image_svg_xml_" data-name="data_image_svg+xml;…" xmlns="http://www.w3.org/2000/svg" width="24" height="24" viewBox="0 0 24 24">
  <path id="Path_1473" data-name="Path 1473" d="M0,24V0H24V24Z" fill="none"/>
  <g id="Group_8624" data-name="Group 8624" transform="translate(4.503 3)">
    <path id="Path_1474" data-name="Path 1474" d="M37.735,21.5a5.69,5.69,0,0,0-4.151,1.324,5.29,5.29,0,0,0-1.312,3.926c0,2.381.9,4.278,1.5,6.428l0,0a34.858,34.858,0,0,1,.542,3.747,4.716,4.716,0,0,0,.478,1.646A1.82,1.82,0,0,0,36.3,39.5a1.888,1.888,0,0,0,1.559-.82,3.055,3.055,0,0,0,.407-1.7,13.475,13.475,0,0,1,.519-3.226,5.513,5.513,0,0,1,.6-1.4c.211-.312.336-.349.375-.349s.163.037.375.349a5.515,5.515,0,0,1,.606,1.4,13.44,13.44,0,0,1,.521,3.226,3.058,3.058,0,0,0,.407,1.7,1.887,1.887,0,0,0,1.559.82,1.821,1.821,0,0,0,1.521-.937,4.767,4.767,0,0,0,.475-1.652,34.007,34.007,0,0,1,.542-3.732l0,0c.595-2.148,1.5-4.044,1.5-6.422v0a5.305,5.305,0,0,0-1.28-3.923,5.308,5.308,0,0,0-3.92-1.33,10.862,10.862,0,0,0-2.522.439l.018.067a3.914,3.914,0,0,0-1.825-.51Zm0,1.5a4.207,4.207,0,0,1,2.452,1.295A10.009,10.009,0,0,1,41.4,25.678l1.23-.855a11.482,11.482,0,0,0-1.418-1.617c-.014-.013-.036-.025-.05-.038a5.629,5.629,0,0,1,.9-.164,3.826,3.826,0,0,1,2.854.885,3.825,3.825,0,0,1,.85,2.856l0,0v.006c0,1.99-.807,3.736-1.441,6.026v0a30.472,30.472,0,0,0-.58,3.908,3.967,3.967,0,0,1-.3,1.146c-.107.194-.062.164-.208.164-.226,0-.22-.014-.3-.132a1.856,1.856,0,0,1-.17-.891,14.022,14.022,0,0,0-.586-3.656,6.623,6.623,0,0,0-.8-1.813,1.8,1.8,0,0,0-3.234,0,6.613,6.613,0,0,0-.8,1.813,14.077,14.077,0,0,0-.583,3.656,1.854,1.854,0,0,1-.17.891c-.076.118-.069.132-.3.132-.149,0-.1.029-.208-.161a3.91,3.91,0,0,1-.3-1.137,31.361,31.361,0,0,0-.58-3.92v-.006c-.635-2.291-1.441-4.036-1.441-6.026a3.816,3.816,0,0,1,.864-2.856,4.253,4.253,0,0,1,3.1-.894Z" transform="translate(-32.271 -21.5)"/>
  </g>
</svg>
