<svg id="data_image_svg_xml_7_" data-name="data_image_svg+xml;… (7)" xmlns="http://www.w3.org/2000/svg" width="24" height="24" viewBox="0 0 24 24">
  <path id="Path_1367" data-name="Path 1367" d="M0,24V0H24V24Z" fill="none"/>
  <g id="Group_8583" data-name="Group 8583" transform="translate(4.5 1.5)">
    <path id="Path_1368" data-name="Path 1368" d="M39.75,10.75a7.514,7.514,0,0,0-7.5,7.5,9.039,9.039,0,0,0,1.131,3.773,34.937,34.937,0,0,0,2.373,4.037c1.711,2.572,3.416,4.664,3.416,4.664l.58.715.58-.715s1.705-2.092,3.422-4.664a35.743,35.743,0,0,0,2.367-4.037A9.039,9.039,0,0,0,47.25,18.25a7.514,7.514,0,0,0-7.5-7.5Zm0,1.5a5.989,5.989,0,0,1,6,6,8.37,8.37,0,0,1-.979,3.117A35.843,35.843,0,0,1,42.5,25.234c-1.377,2.063-2.314,3.2-2.754,3.75-.439-.551-1.377-1.688-2.754-3.75a35.844,35.844,0,0,1-2.268-3.867,8.37,8.37,0,0,1-.979-3.117A5.989,5.989,0,0,1,39.75,12.25Zm0,4.5a1.5,1.5,0,1,0,1.5,1.5A1.5,1.5,0,0,0,39.75,16.75Z" transform="translate(-32.25 -10.75)"/>
  </g>
</svg>
