<svg id="data_image_svg_xml_8_" data-name="data_image_svg+xml;… (8)" xmlns="http://www.w3.org/2000/svg" width="24" height="24" viewBox="0 0 24 24">
  <path id="Path_2790" data-name="Path 2790" d="M0,24V0H24V24Z" fill="none"/>
  <g id="Group_10274" data-name="Group 10274" transform="translate(2.491 2.491)">
    <path id="Path_2791" data-name="Path 2791" d="M13.67,10.687v1.491h-.746a2.245,2.245,0,0,0-2.237,2.237V27.838a2.245,2.245,0,0,0,2.237,2.237H27.838a2.245,2.245,0,0,0,2.237-2.237V14.416a2.245,2.245,0,0,0-2.237-2.237h-.746V10.687H25.6v1.491H15.162V10.687Zm-.746,2.983h.746v1.491h1.491V13.67H25.6v1.491h1.491V13.67h.746a.736.736,0,0,1,.746.746v2.237h-16.4V14.416a.736.736,0,0,1,.746-.746Zm-.746,4.474h16.4v9.694a.736.736,0,0,1-.746.746H12.925a.736.736,0,0,1-.746-.746Zm4.474,4.474V24.11H24.11V22.618Z" transform="translate(-10.687 -10.687)"/>
  </g>
</svg>
