<svg id="data_image_svg_xml_" data-name="data_image_svg+xml;…" xmlns="http://www.w3.org/2000/svg" width="24" height="24" viewBox="0 0 24 24">
  <path id="Path_2772" data-name="Path 2772" d="M0,24V0H24V24Z" fill="none"/>
  <g id="Group_10265" data-name="Group 10265" transform="translate(1.491 2.491)">
    <path id="Path_2773" data-name="Path 2773" d="M27.838,10.688a3.739,3.739,0,0,0-3.728,3.728,3.947,3.947,0,0,0,.076.746L17.428,18.2a3.729,3.729,0,1,0,.012,4.34L24.2,25.549a3.6,3.6,0,0,0-.093.8,3.759,3.759,0,1,0,.7-2.161l-6.764-3a3.7,3.7,0,0,0,.093-.8,3.763,3.763,0,0,0-.093-.816l6.723-3.041a3.725,3.725,0,1,0,3.064-5.837Zm0,1.491A2.237,2.237,0,1,1,25.6,14.416,2.223,2.223,0,0,1,27.838,12.179ZM14.416,18.144a2.237,2.237,0,1,1-2.237,2.237A2.223,2.223,0,0,1,14.416,18.144ZM27.838,24.11A2.237,2.237,0,1,1,25.6,26.347,2.223,2.223,0,0,1,27.838,24.11Z" transform="translate(-10.688 -10.688)"/>
  </g>
</svg>
