<svg id="data_image_svg_xml_4_" data-name="data_image_svg+xml;… (4)" xmlns="http://www.w3.org/2000/svg" width="24" height="24" viewBox="0 0 24 24">
  <path id="Path_3060" data-name="Path 3060" d="M0,24V0H24V24Z" fill="none"/>
  <g id="Group_11016" data-name="Group 11016" transform="translate(1.006 1.006)">
    <path id="Path_3061" data-name="Path 3061" d="M11.221.042a1.522,1.522,0,0,0-1.072.437L.479,10.149a1.533,1.533,0,0,0,0,2.144l9.671,9.671a1.523,1.523,0,0,0,2.144,0l9.671-9.671a1.533,1.533,0,0,0,0-2.144L12.293.479A1.522,1.522,0,0,0,11.221.042Zm.012,1.491,9.676,9.676c.012.012.012.017,0,.029l-9.676,9.671c-.012.012-.017.012-.029,0L1.539,11.239c-.017-.017-.023-.017-.006-.029L11.2,1.539c.017-.017.017-.023.029-.006ZM10.475,6v7.806L7.062,10.674l-1,1.1,5.161,4.754,5.167-4.754-1.014-1.1-3.408,3.134V6Z" transform="translate(-0.042 -0.042)" fill="#333"/>
  </g>
</svg>
