<svg xmlns="http://www.w3.org/2000/svg" width="24" height="23.918" viewBox="0 0 24 23.918">
  <g id="data_image_svg_xml_10_" data-name="data_image_svg+xml;… (10)" transform="translate(0.588)">
    <path id="Path_225" data-name="Path 225" d="M0,23.918V0H23.918V23.918Z" transform="translate(-0.506)" fill="none"/>
    <g id="Group_7627" data-name="Group 7627" transform="translate(-0.588 5.98)">
      <path id="Path_226" data-name="Path 226" d="M10.706,43A12.45,12.45,0,0,0-.436,49.412l-.152.315.152.315a12.45,12.45,0,0,0,11.142,6.412,12.45,12.45,0,0,0,11.142-6.412l.146-.315-.146-.315A12.45,12.45,0,0,0,10.706,43Zm0,1.495a5.232,5.232,0,1,1-5.232,5.232A5.224,5.224,0,0,1,10.706,44.495Zm-5.32,1.162a6.589,6.589,0,0,0,0,8.14,9.416,9.416,0,0,1-4.222-4.07,9.416,9.416,0,0,1,4.222-4.07Zm10.639,0a9.416,9.416,0,0,1,4.222,4.07,9.416,9.416,0,0,1-4.222,4.07,6.589,6.589,0,0,0,0-8.14Zm-5.32,1.828a2.242,2.242,0,1,0,2.242,2.242A2.243,2.243,0,0,0,10.706,47.485Z" transform="translate(0.588 -43)"/>
    </g>
  </g>
</svg>
