<svg id="data_image_svg_xml_9_" data-name="data_image_svg+xml;… (9)" xmlns="http://www.w3.org/2000/svg" width="24" height="24" viewBox="0 0 24 24">
  <path id="Path_1400" data-name="Path 1400" d="M0,24V0H24V24Z" fill="none"/>
  <g id="Group_8596" data-name="Group 8596" transform="translate(2.5 2.5)">
    <path id="Path_1401" data-name="Path 1401" d="M20.5,10.75a9.725,9.725,0,0,0-7.236,3.223L10.75,11.465V16.75h5.3L14.33,15.033A8.247,8.247,0,1,1,20.5,28.75h-.75v1.5h.75a9.75,9.75,0,0,0,0-19.5Zm-.732,4.5v1.5H19a2.25,2.25,0,0,0,0,4.5h3a.75.75,0,0,1,0,1.5H16.75v1.5h3.018v1.5h1.5v-1.5H22a2.25,2.25,0,0,0,0-4.5H19a.75.75,0,0,1,0-1.5h3.75v-1.5H21.268v-1.5ZM11.5,19.75a.75.75,0,1,0,.75.75A.748.748,0,0,0,11.5,19.75Zm1.189,4.5a.716.716,0,0,0-.357.1.767.767,0,0,0-.352.457.74.74,0,0,0,.076.568.748.748,0,1,0,1.295-.75.746.746,0,0,0-.662-.375Zm3.275,3.3a.728.728,0,0,0-.615.369.74.74,0,0,0-.076.568.767.767,0,0,0,.352.457.74.74,0,0,0,.568.076.767.767,0,0,0,.457-.352.747.747,0,0,0-.275-1.02.68.68,0,0,0-.41-.1Z" transform="translate(-10.75 -10.75)"/>
  </g>
</svg>
