<svg id="data_image_svg_xml_" data-name="data_image_svg+xml;…" xmlns="http://www.w3.org/2000/svg" width="24" height="24" viewBox="0 0 24 24">
  <path id="Path_3068" data-name="Path 3068" d="M0,24V0H24V24Z" fill="none"/>
  <g id="Group_11020" data-name="Group 11020" transform="translate(2.493 2.423)">
    <path id="Path_3069" data-name="Path 3069" d="M20.661,10.2a9.694,9.694,0,1,0,9.426,9.956,9.573,9.573,0,0,0-.466-3.2l-1.229,1.159A8.248,8.248,0,1,1,24.657,12.9l1.118-1.06A9.672,9.672,0,0,0,20.661,10.2Zm7.189,2.738L18.9,21.89l-2.458-2.453-.524-.53-1.054,1.054.53.524L18.9,24l10-10Z" transform="translate(-10.701 -10.2)"/>
  </g>
</svg>
