<svg id="data_image_svg_xml_3_" data-name="data_image_svg+xml;… (3)" xmlns="http://www.w3.org/2000/svg" width="24" height="24" viewBox="0 0 24 24">
  <path id="Path_1388" data-name="Path 1388" d="M0,24V0H24V24Z" fill="none"/>
  <g id="Group_8590" data-name="Group 8590" transform="translate(2.5 2.5)">
    <path id="Path_1389" data-name="Path 1389" d="M19.75,10.75v4.506h1.5V10.75Zm-5.613,2.326-1.061,1.061,3.205,3.211,1.066-1.066Zm12.727,0L25.8,14.137,26.863,15.2l1.061-1.061ZM10.75,19.75v1.5h4.5v-1.5Zm18,0v1.5h1.5v-1.5ZM15.719,24.215l-2.643,2.648,1.061,1.061,2.648-2.643Zm10.687,1.131-1.061,1.061,1.518,1.518,1.061-1.061Zm-6.656,1.9v3h1.5v-3Z" transform="translate(-10.75 -10.75)"/>
  </g>
</svg>
