<svg id="data_image_svg_xml_" data-name="data_image_svg+xml;…" xmlns="http://www.w3.org/2000/svg" width="24" height="24" viewBox="0 0 24 24">
  <path id="Path_2794" data-name="Path 2794" d="M0,24V0H24V24Z" fill="none"/>
  <g id="Group_10276" data-name="Group 10276" transform="translate(2.5 2.5)">
    <path id="Path_2795" data-name="Path 2795" d="M11.5,10.75a.75.75,0,0,0-.75.75v3.75h1.5v-3h3v-1.5Zm14.25,0v1.5h3v3h1.5V11.5a.75.75,0,0,0-.75-.75Zm-5.25,3a6.707,6.707,0,0,0-6.7,7.5H10.75v1.5h19.5v-1.5H27.2a6.707,6.707,0,0,0-6.7-7.5Zm0,1.5a5.238,5.238,0,0,1,5.194,6H22.612a2.228,2.228,0,0,0,.138-.75,2.25,2.25,0,0,0-4.5,0,2.229,2.229,0,0,0,.138.75H15.306a5.238,5.238,0,0,1,5.194-6Zm-5.613,9a6.751,6.751,0,0,0,11.227,0H24.156a5.206,5.206,0,0,1-7.312,0Zm-4.137,1.5V29.5a.75.75,0,0,0,.75.75h3.75v-1.5h-3v-3Zm18,0v3h-3v1.5H29.5a.75.75,0,0,0,.75-.75V25.75Z" transform="translate(-10.75 -10.75)"/>
  </g>
</svg>
