<svg id="data_image_svg_xml_3_" data-name="data_image_svg+xml;… (3)" xmlns="http://www.w3.org/2000/svg" width="24" height="24" viewBox="0 0 24 24">
  <path id="Path_1359" data-name="Path 1359" d="M0,24V0H24V24Z" fill="none"/>
  <g id="Group_8579" data-name="Group 8579" transform="translate(1.5 3)">
    <path id="Path_1360" data-name="Path 1360" d="M13,21.5a2.258,2.258,0,0,0-2.25,2.25v13.5A2.258,2.258,0,0,0,13,39.5H29.5a2.258,2.258,0,0,0,2.25-2.25V23.75A2.258,2.258,0,0,0,29.5,21.5ZM13,23H29.5a.74.74,0,0,1,.75.75v10.9L24.994,29.1l-2.93,3.3-4.518-4.764L12.25,33.6V23.75A.74.74,0,0,1,13,23Zm12.75,1.5a1.5,1.5,0,1,0,1.5,1.5A1.5,1.5,0,0,0,25.75,24.5Zm-8.168,5.35L25.311,38H13a.74.74,0,0,1-.75-.75V35.861Zm7.441,1.471,5.227,5.508v.422a.74.74,0,0,1-.75.75H27.373L23.1,33.488Z" transform="translate(-10.75 -21.5)"/>
  </g>
</svg>
