<svg id="data_image_svg_xml_" data-name="data_image_svg+xml;…" xmlns="http://www.w3.org/2000/svg" width="24" height="24" viewBox="0 0 24 24">
  <path id="Path_3084" data-name="Path 3084" d="M0,24V0H24V24Z" fill="none"/>
  <g id="Group_11028" data-name="Group 11028" transform="translate(2.5 2.5)">
    <path id="Path_3085" data-name="Path 3085" d="M20.5,10.75a9.75,9.75,0,1,0,9.75,9.75A9.765,9.765,0,0,0,20.5,10.75Zm0,1.5a8.25,8.25,0,1,1-8.25,8.25A8.24,8.24,0,0,1,20.5,12.25Zm-3,4.189L16.439,17.5l.533.527L19.439,20.5l-2.467,2.473-.533.527L17.5,24.561l.527-.533L20.5,21.561l2.473,2.467.527.533L24.561,23.5l-.533-.527L21.561,20.5l2.467-2.473.533-.527L23.5,16.439l-.527.533L20.5,19.439l-2.473-2.467Z" transform="translate(-10.75 -10.75)"/>
  </g>
</svg>
