<svg id="data_image_svg_xml_4_" data-name="data_image_svg+xml;… (4)" xmlns="http://www.w3.org/2000/svg" width="24" height="24" viewBox="0 0 24 24">
  <path id="Path_1390" data-name="Path 1390" d="M0,24V0H24V24Z" fill="none"/>
  <g id="Group_8591" data-name="Group 8591" transform="translate(0 3)">
    <path id="Path_1391" data-name="Path 1391" d="M2.25,21.5A2.258,2.258,0,0,0,0,23.75v10.5A2.258,2.258,0,0,0,2.25,36.5h.891a2.233,2.233,0,0,0,4.219,0H16.6a2.233,2.233,0,0,0,4.219,0h.932A2.262,2.262,0,0,0,24,34.25V31.707a2.27,2.27,0,0,0-.381-1.254L21.281,27a2.262,2.262,0,0,0-1.875-1H15V23.75a2.258,2.258,0,0,0-2.25-2.25Zm0,1.5h10.5a.74.74,0,0,1,.75.75V35H7.359a2.233,2.233,0,0,0-4.219,0H2.25a.74.74,0,0,1-.75-.75V23.75A.74.74,0,0,1,2.25,23ZM15,27.5h4.406a.765.765,0,0,1,.627.334v.006l2.338,3.451a.743.743,0,0,1,.129.416V34.25a.74.74,0,0,1-.75.75h-.932A2.233,2.233,0,0,0,16.6,35H15ZM5.25,35a.75.75,0,1,1-.75.75A.74.74,0,0,1,5.25,35Zm13.459,0a.75.75,0,1,1-.75.75A.74.74,0,0,1,18.709,35Z" transform="translate(0 -21.5)"/>
  </g>
</svg>
