<svg id="data_image_svg_xml_32_" data-name="data_image_svg+xml;… (32)" xmlns="http://www.w3.org/2000/svg" width="24" height="24" viewBox="0 0 24 24">
  <path id="Path_78" data-name="Path 78" d="M24,24V0H0V24Z" fill="none"/>
  <g id="Group_7429" data-name="Group 7429" transform="translate(0.789 7.192)">
    <path id="Path_79" data-name="Path 79" d="M23.286,51.542a.8.8,0,0,1,.55.242l3.93,3.93a.8.8,0,0,1,0,1.27l0,0-3.928,3.928A.8.8,0,1,1,22.7,59.784l2.634-2.634H6.47a.8.8,0,1,1,0-1.6H25.339L22.7,52.915a.8.8,0,0,1,.581-1.373Z" transform="translate(-5.659 -51.542)"/>
  </g>
</svg>
