<svg id="data_image_svg_xml_4_" data-name="data_image_svg+xml;… (4)" xmlns="http://www.w3.org/2000/svg" width="24" height="24" viewBox="0 0 24 24">
  <path id="Path_1361" data-name="Path 1361" d="M0,24V0H24V24Z" fill="none"/>
  <g id="Group_8580" data-name="Group 8580" transform="translate(1.5 3)">
    <path id="Path_1362" data-name="Path 1362" d="M13,21.5a2.251,2.251,0,0,0-2.25,2.25v13.5A2.251,2.251,0,0,0,13,39.5h6.158a8.777,8.777,0,0,1-.592-1.5H13a.748.748,0,0,1-.75-.75V35.861l5.332-6.012,1.746,1.834A8.125,8.125,0,0,1,20.2,30.43l-2.654-2.795L12.25,33.6V23.75A.748.748,0,0,1,13,23H29.5a.748.748,0,0,1,.75.75v4.658a8.252,8.252,0,0,1,1.5.979V23.75A2.251,2.251,0,0,0,29.5,21.5Zm12.75,3a1.5,1.5,0,1,0,1.5,1.5A1.5,1.5,0,0,0,25.75,24.5ZM26.5,29a6.75,6.75,0,1,0,6.75,6.75A6.759,6.759,0,0,0,26.5,29Zm0,1.5a5.25,5.25,0,1,1-5.25,5.25A5.241,5.241,0,0,1,26.5,30.5ZM25.75,32v3h-3v1.5h3v3h1.5v-3h3V35h-3V32Z" transform="translate(-10.75 -21.5)"/>
  </g>
</svg>
