<svg id="data_image_svg_xml_3_" data-name="data_image_svg+xml;… (3)" xmlns="http://www.w3.org/2000/svg" width="24" height="24" viewBox="0 0 24 24">
  <path id="Path_1461" data-name="Path 1461" d="M0,24V0H24V24Z" fill="none"/>
  <g id="Group_8618" data-name="Group 8618" transform="translate(3 1.5)">
    <path id="Path_1462" data-name="Path 1462" d="M28.232,10.75a6.669,6.669,0,0,0-4.925,1.934A6.982,6.982,0,0,0,21.5,17.6a7.781,7.781,0,0,0,1.037,3.665,13.758,13.758,0,0,1,1.356,3.152c.351,1.484.606,3.173,1.017,4.562a5.97,5.97,0,0,0,.817,1.837,2.132,2.132,0,0,0,1.679.935,1.609,1.609,0,0,0,.973-.287,1.49,1.49,0,0,0,.524-.812,6.427,6.427,0,0,0,.1-1.714,15.045,15.045,0,0,1,.908-4.67.616.616,0,0,1,1.181,0h0A17.175,17.175,0,0,1,32,29.125a5.783,5.783,0,0,0,.062,1.623,1.367,1.367,0,0,0,.592.791,1.786,1.786,0,0,0,.94.211,2.129,2.129,0,0,0,1.685-.958,6.163,6.163,0,0,0,.814-1.857c.41-1.4.666-3.089,1.014-4.512v-.006a13.76,13.76,0,0,1,1.356-3.152A7.781,7.781,0,0,0,39.5,17.6a6.982,6.982,0,0,0-1.808-4.916,6.669,6.669,0,0,0-4.925-1.934,7.881,7.881,0,0,0-2.268.334,7.926,7.926,0,0,0-2.268-.334Zm0,1.5a6.584,6.584,0,0,1,2.019.287l.249.088.249-.091a6.6,6.6,0,0,1,2.019-.284,5.11,5.11,0,0,1,3.844,1.471,5.162,5.162,0,0,1,1.321,3.029H35V15.174a1.433,1.433,0,0,0-1.421-1.424H27.424A1.436,1.436,0,0,0,26,15.174V16.75H23.067a5.162,5.162,0,0,1,1.321-3.029A5.11,5.11,0,0,1,28.232,12.25Zm-.732,3h6v1.5h-6Zm-4.447,3H26v1.576a1.436,1.436,0,0,0,1.424,1.424h6.152A1.433,1.433,0,0,0,35,19.823V18.25h2.95a7.051,7.051,0,0,1-.817,2.329,14.761,14.761,0,0,0-1.482,3.492c-.371,1.518-.633,3.2-1,4.444a5.125,5.125,0,0,1-.6,1.409c-.2.284-.295.325-.46.325-.084,0-.052,0-.085,0-.01-.117-.009-.5-.009-1.122a18.6,18.6,0,0,0-.964-5.259V23.86l0,0a2.116,2.116,0,0,0-4.066,0,16.55,16.55,0,0,0-.967,5.08,9.318,9.318,0,0,1-.047,1.318s.031-.006-.047-.006c-.174,0-.267-.042-.466-.316a4.928,4.928,0,0,1-.592-1.38c-.363-1.226-.625-2.914-1-4.482a14.762,14.762,0,0,0-1.482-3.492,7.051,7.051,0,0,1-.817-2.329Zm4.447,0h6v1.5h-6Z" transform="translate(-21.5 -10.75)"/>
  </g>
</svg>
