<svg id="data_image_svg_xml_3_" data-name="data_image_svg+xml;… (3)" xmlns="http://www.w3.org/2000/svg" width="24" height="24" viewBox="0 0 24 24">
  <path id="Path_3076" data-name="Path 3076" d="M0,24V0H24V24Z" fill="none"/>
  <g id="Group_11024" data-name="Group 11024" transform="translate(2.501 2.564)">
    <path id="Path_3077" data-name="Path 3077" d="M14.312,11.212l-2.361,2.361a4.046,4.046,0,0,0-.65,4.893c1.031,1.77,1.875,3.076,5.408,6.6S21.2,29.083,22.937,30.1a4.036,4.036,0,0,0,4.887-.65l2.367-2.361-4.57-4.564-1.857,1.857a7.765,7.765,0,0,1-.943-.521,16.662,16.662,0,0,1-2.713-2.191,20.609,20.609,0,0,1-2.391-2.918,10.551,10.551,0,0,1-.668-1.113l-.012-.023,1.84-1.84Zm0,2.121,2.443,2.443-1.072,1.078a.794.794,0,0,0-.24.609,1.129,1.129,0,0,0,.047.316,3.533,3.533,0,0,0,.211.527,12.608,12.608,0,0,0,.773,1.289,22.577,22.577,0,0,0,2.566,3.141,18.2,18.2,0,0,0,2.977,2.385,8.624,8.624,0,0,0,1.172.65,2.22,2.22,0,0,0,.5.17,1.086,1.086,0,0,0,.322.018.8.8,0,0,0,.533-.24l1.072-1.072,2.449,2.443L26.764,28.4a2.538,2.538,0,0,1-3.07.41c-1.77-1.037-2.443-1.312-5.93-4.793s-4.148-4.559-5.168-6.3a2.538,2.538,0,0,1,.41-3.07Z" transform="translate(-10.757 -11.212)"/>
  </g>
</svg>
