<svg id="data_image_svg_xml_3_" data-name="data_image_svg+xml;… (3)" xmlns="http://www.w3.org/2000/svg" width="24" height="24" viewBox="0 0 24 24">
  <path id="Path_1328" data-name="Path 1328" d="M0,24V0H24V24Z" fill="none"/>
  <g id="Group_8569" data-name="Group 8569" transform="translate(3 1.5)">
    <path id="Path_1329" data-name="Path 1329" d="M29.75,10.75a2.255,2.255,0,0,0-2.244,2.244v.756H23.75A2.261,2.261,0,0,0,21.5,16v1.5a.75.75,0,0,0,.75.75h.841l1.266,10.011v-.015a2.259,2.259,0,0,0,2.235,2h7.816a2.259,2.259,0,0,0,2.235-2v.015L37.909,18.25h.841a.75.75,0,0,0,.75-.75V16a2.261,2.261,0,0,0-2.25-2.25H33.5v-.756a2.255,2.255,0,0,0-2.244-2.244Zm0,1.5h1.506a.731.731,0,0,1,.744.744v.756H29.006v-.756a.731.731,0,0,1,.744-.744Zm-6,3h13.5A.74.74,0,0,1,38,16v.75H23V16A.74.74,0,0,1,23.75,15.25Zm.853,3H36.4l-1.245,9.826v.006a.739.739,0,0,1-.744.668H26.592a.739.739,0,0,1-.744-.668v-.006Z" transform="translate(-21.5 -10.75)"/>
  </g>
</svg>
