<svg id="data_image_svg_xml_2_" data-name="data_image_svg+xml;… (2)" xmlns="http://www.w3.org/2000/svg" width="24" height="24" viewBox="0 0 24 24">
  <path id="Path_1459" data-name="Path 1459" d="M0,24V0H24V24Z" fill="none"/>
  <g id="Group_8617" data-name="Group 8617" transform="translate(3 1.5)">
    <path id="Path_1460" data-name="Path 1460" d="M28.232,10.75a6.67,6.67,0,0,0-4.925,1.934A6.978,6.978,0,0,0,21.5,17.6a7.78,7.78,0,0,0,1.037,3.665,13.677,13.677,0,0,1,1.354,3.152c.351,1.483.606,3.173,1.017,4.562a5.971,5.971,0,0,0,.82,1.837,2.131,2.131,0,0,0,1.679.935,1.613,1.613,0,0,0,.973-.287,1.481,1.481,0,0,0,.521-.809,6.388,6.388,0,0,0,.1-1.717,15.044,15.044,0,0,1,.908-4.67.614.614,0,0,1,1.178,0h0A17.207,17.207,0,0,1,32,29.125a5.778,5.778,0,0,0,.062,1.623,1.372,1.372,0,0,0,.592.794,1.787,1.787,0,0,0,.94.208,2.129,2.129,0,0,0,1.685-.958,6.136,6.136,0,0,0,.814-1.854c.41-1.4.665-3.093,1.014-4.515v0l0,0a13.677,13.677,0,0,1,1.354-3.152A7.78,7.78,0,0,0,39.5,17.6a6.977,6.977,0,0,0-1.808-4.916,6.672,6.672,0,0,0-4.925-1.934,7.916,7.916,0,0,0-2.268.334,7.927,7.927,0,0,0-2.268-.334Zm0,1.5a6.605,6.605,0,0,1,2.019.284l.249.088.249-.088a6.607,6.607,0,0,1,2.019-.284,5.1,5.1,0,0,1,3.841,1.471A5.453,5.453,0,0,1,38,17.6a6.216,6.216,0,0,1-.873,2.982,14.727,14.727,0,0,0-1.477,3.483v0s0,0,0,.006c-.372,1.517-.63,3.2-.993,4.441a5.121,5.121,0,0,1-.6,1.409c-.2.284-.3.325-.463.325-.084,0-.052,0-.085,0-.01-.116-.009-.494-.009-1.122a18.628,18.628,0,0,0-.961-5.259l0-.006v0a2.118,2.118,0,0,0-4.069,0,16.547,16.547,0,0,0-.964,5.08,9.086,9.086,0,0,1-.05,1.318s.034-.006-.047-.006c-.174,0-.267-.042-.466-.316a4.917,4.917,0,0,1-.595-1.38c-.362-1.225-.622-2.912-.993-4.479v0a14.687,14.687,0,0,0-1.479-3.489A6.216,6.216,0,0,1,23,17.6a5.453,5.453,0,0,1,1.389-3.879,5.11,5.11,0,0,1,3.844-1.471Zm-.732,3a1.5,1.5,0,1,0,1.5,1.5A1.5,1.5,0,0,0,27.5,15.25Z" transform="translate(-21.5 -10.75)"/>
  </g>
</svg>
