<svg id="data_image_svg_xml_2_" data-name="data_image_svg+xml;… (2)" xmlns="http://www.w3.org/2000/svg" width="24" height="24" viewBox="0 0 24 24">
  <path id="Path_2778" data-name="Path 2778" d="M0,24V0H24V24Z" fill="none"/>
  <g id="Group_10268" data-name="Group 10268" transform="translate(2.491 1.491)">
    <path id="Path_2779" data-name="Path 2779" d="M20.381,10.688a9.509,9.509,0,0,0-9.694,9.286A8.523,8.523,0,0,0,13.67,26.58v4.142L17.4,28.234a18.54,18.54,0,0,0,2.983.35,10.478,10.478,0,0,0,6.81-2.342,8.105,8.105,0,0,0,2.884-6.268,9.509,9.509,0,0,0-9.694-9.286Zm0,1.491a8,8,0,0,1,8.2,7.795,6.533,6.533,0,0,1-2.359,5.132,9,9,0,0,1-5.843,1.987,21.212,21.212,0,0,1-3.064-.367l-.28-.035-1.876,1.247V25.986l-.28-.221a6.915,6.915,0,0,1-2.7-5.791,8,8,0,0,1,8.2-7.795Zm-2.237,5.965L13.67,22.618l4.474-1.491,4.474,1.491,4.474-4.474-4.474,1.491Z" transform="translate(-10.688 -10.688)"/>
  </g>
</svg>
