<svg id="data_image_svg_xml_6_" data-name="data_image_svg+xml;… (6)" xmlns="http://www.w3.org/2000/svg" width="24" height="24" viewBox="0 0 24 24">
  <path id="Path_2786" data-name="Path 2786" d="M0,24V0H24V24Z" fill="none"/>
  <g id="Group_10272" data-name="Group 10272" transform="translate(4.474 2.983)">
    <path id="Path_2787" data-name="Path 2787" d="M34.3,21.375a2.24,2.24,0,0,0-2.237,2.237V37.034A2.24,2.24,0,0,0,34.3,39.271h6.094l.364-.364c-.027-.034-.045-.076-.07-.111a5.084,5.084,0,0,1-.647-1.017H34.3a.747.747,0,0,1-.746-.746V23.612a.747.747,0,0,1,.746-.746H44.739a.747.747,0,0,1,.746.746V30.4a5.174,5.174,0,0,1,1.491.446V23.612a2.24,2.24,0,0,0-2.237-2.237Zm2.237,4.474V27.34H42.5V25.849Zm0,2.983v1.491H42.5V28.832Zm0,2.983v1.491h2.983V31.815Zm8.2,0a1.713,1.713,0,0,0-1.116.408l-.192.163-.248.02a1.726,1.726,0,0,0-1.576,1.576l-.02.251-.166.192a1.728,1.728,0,0,0,0,2.231l.163.189.02.25a1.719,1.719,0,0,0,1.512,1.558l-2.106,2.106H42.5v1.491l2.237-2.237,2.237,2.237V40.763h1.491L46.242,38.68l.052-.006A1.723,1.723,0,0,0,47.87,37.1l.02-.253.166-.189v0a1.727,1.727,0,0,0,0-2.228l-.163-.189-.023-.253A1.723,1.723,0,0,0,46.3,32.409l-.251-.02-.192-.163a1.718,1.718,0,0,0-1.116-.408Zm0,1.486a.233.233,0,0,1,.149.058l.251.213a1.224,1.224,0,0,0,.711.294l.329.026a.22.22,0,0,1,.207.207v0l.026.338v0a1.239,1.239,0,0,0,.288.693h0l.218.256a.219.219,0,0,1,0,.294l-.221.256a1.215,1.215,0,0,0-.291.7l-.026.329a.22.22,0,0,1-.207.21l-.341.026h0a1.231,1.231,0,0,0-.69.288l0,0-.256.221a.219.219,0,0,1-.294,0l-.25-.216,0,0a1.222,1.222,0,0,0-.708-.291l-.329-.026a.22.22,0,0,1-.21-.207l-.026-.341v0a1.231,1.231,0,0,0-.288-.69v0l-.221-.256a.218.218,0,0,1,0-.291v0l.216-.251,0,0a1.223,1.223,0,0,0,.291-.708l.029-.326v0a.22.22,0,0,1,.207-.21l.341-.026h0a1.227,1.227,0,0,0,.7-.294l0,.006.256-.218v0a.219.219,0,0,1,.146-.055Z" transform="translate(-32.063 -21.375)"/>
  </g>
</svg>
