<svg id="data_image_svg_xml_2_" data-name="data_image_svg+xml;… (2)" xmlns="http://www.w3.org/2000/svg" width="24" height="24" viewBox="0 0 24 24">
  <path id="Path_2798" data-name="Path 2798" d="M0,24V0H24V24Z" fill="none"/>
  <g id="Group_10792" data-name="Group 10792" transform="translate(2.5 2.5)">
    <path id="Path_2799" data-name="Path 2799" d="M13,10.75A2.258,2.258,0,0,0,10.75,13V28A2.258,2.258,0,0,0,13,30.25H25.311l4.939-4.939V13A2.258,2.258,0,0,0,28,10.75Zm0,1.5H28a.74.74,0,0,1,.75.75V24.25h-4.5v4.5H13a.74.74,0,0,1-.75-.75V13A.74.74,0,0,1,13,12.25Zm12.75,13.5h1.939L25.75,27.689Z" transform="translate(-10.75 -10.75)"/>
  </g>
</svg>
