<svg id="data_image_svg_xml_1_" data-name="data_image_svg+xml;… (1)" xmlns="http://www.w3.org/2000/svg" width="24" height="24" viewBox="0 0 24 24">
  <path id="Path_1477" data-name="Path 1477" d="M0,24V0H24V24Z" fill="none"/>
  <g id="Group_8626" data-name="Group 8626" transform="translate(2.491 2.491)">
    <path id="Path_1478" data-name="Path 1478" d="M18.89,10.687a.743.743,0,0,0-.746.746V12.6a8.216,8.216,0,0,0-1.678.7l-.827-.827a.763.763,0,0,0-1.06,0L12.47,14.579a.763.763,0,0,0,0,1.06l.839.827a7.852,7.852,0,0,0-.7,1.678H11.433a.743.743,0,0,0-.746.746v2.983a.743.743,0,0,0,.746.746H12.6a8.215,8.215,0,0,0,.7,1.678l-.827.833a.756.756,0,0,0,0,1.054l2.109,2.1a.752.752,0,0,0,1.06,0l.827-.827a8.216,8.216,0,0,0,1.678.7v1.171a.743.743,0,0,0,.746.746h2.983a.751.751,0,0,0,.746-.746V28.164a8.215,8.215,0,0,0,1.678-.7l.833.821a.745.745,0,0,0,1.054,0l2.1-2.1a.745.745,0,0,0,0-1.054l-.833-.833a8.233,8.233,0,0,0,.7-1.678h1.171a.743.743,0,0,0,.746-.746V18.89a.743.743,0,0,0-.746-.746H28.152a8.174,8.174,0,0,0-.687-1.684l.821-.821a.752.752,0,0,0,0-1.06l-2.1-2.109a.749.749,0,0,0-.53-.216.736.736,0,0,0-.524.216L24.3,13.3a7.966,7.966,0,0,0-1.684-.7V11.433a.743.743,0,0,0-.746-.746Zm.746,1.491h1.491v.9a.754.754,0,0,0,.594.734,6.473,6.473,0,0,1,2.353.979.758.758,0,0,0,.944-.1l.635-.635,1.054,1.054-.641.635a.765.765,0,0,0-.093.944,6.52,6.52,0,0,1,.961,2.353.754.754,0,0,0,.734.594h.915v1.491h-.909a.742.742,0,0,0-.728.6,6.7,6.7,0,0,1-.984,2.336.741.741,0,0,0,.093.938l.652.652-1.054,1.054L25,26.061a.74.74,0,0,0-.938-.093,6.618,6.618,0,0,1-2.342.984.749.749,0,0,0-.594.734v.9H19.635v-.909a.742.742,0,0,0-.6-.728,6.7,6.7,0,0,1-2.336-.984.75.75,0,0,0-.944.1l-.647.647-1.054-1.054.647-.647a.749.749,0,0,0,.1-.938,6.6,6.6,0,0,1-.99-2.348.754.754,0,0,0-.734-.594h-.9V19.635h.909a.754.754,0,0,0,.734-.594A6.563,6.563,0,0,1,14.8,16.7a.757.757,0,0,0-.093-.944l-.652-.647,1.054-1.054.647.647a.749.749,0,0,0,.938.1,6.6,6.6,0,0,1,2.348-.99.754.754,0,0,0,.594-.734Zm.874,4.474a3.73,3.73,0,1,0,3.6,3.856A3.749,3.749,0,0,0,20.509,16.653Zm-.047,1.491A2.238,2.238,0,1,1,18.144,20.3,2.228,2.228,0,0,1,20.463,18.144Z" transform="translate(-10.688 -10.687)"/>
  </g>
</svg>
