<svg id="data_image_svg_xml_" data-name="data_image_svg+xml;…" xmlns="http://www.w3.org/2000/svg" width="24" height="24" viewBox="0 0 24 24">
  <path id="Path_3070" data-name="Path 3070" d="M0,24V0H24V24Z" fill="none"/>
  <g id="Group_11021" data-name="Group 11021" transform="translate(1.5 3)">
    <path id="Path_3071" data-name="Path 3071" d="M29.477,21.5a.759.759,0,0,0-.557.27S25.451,26,18.25,26H13a2.258,2.258,0,0,0-2.25,2.25v3.07l1.395,6.973A1.505,1.505,0,0,0,13.615,39.5H15.25a1.517,1.517,0,0,0,1.471-1.793V37.7l-.838-4.2H18.25c7.2,0,10.67,4.23,10.67,4.23a.75.75,0,0,0,1.33-.48V32.016a2.464,2.464,0,0,0,0-4.535V22.248a.751.751,0,0,0-.773-.75Zm-.727,2.291V35.707C27.367,34.424,24.314,32,18.25,32h-1.5V27.5h1.5c6.064,0,9.117-2.426,10.5-3.709ZM13,27.5h2.25V32h-1.2l1.2,6H13.615l-1.365-6.82v-2.93A.74.74,0,0,1,13,27.5Z" transform="translate(-10.75 -21.498)"/>
  </g>
</svg>
