<svg id="data_image_svg_xml_7_" data-name="data_image_svg+xml;… (7)" xmlns="http://www.w3.org/2000/svg" width="24" height="24" viewBox="0 0 24 24">
  <path id="Path_1404" data-name="Path 1404" d="M0,24V0H24V24Z" fill="none"/>
  <g id="Group_8598" data-name="Group 8598" transform="translate(7.5 2.5)">
    <path id="Path_1405" data-name="Path 1405" d="M58.25,10.75a3,3,0,1,0,3,3A3.013,3.013,0,0,0,58.25,10.75Zm0,1.5a1.5,1.5,0,1,1-1.5,1.5A1.488,1.488,0,0,1,58.25,12.25Zm-4.5,6v1.5h1.5v9h-1.5v1.5h9v-1.5h-1.5V20.5A2.258,2.258,0,0,0,59,18.25Zm3,1.5H59a.74.74,0,0,1,.75.75v8.25h-3Z" transform="translate(-53.75 -10.75)"/>
  </g>
</svg>
