<svg id="data_image_svg_xml_" data-name="data_image_svg+xml;…" xmlns="http://www.w3.org/2000/svg" width="24" height="24" viewBox="0 0 24 24">
  <path id="Path_2792" data-name="Path 2792" d="M0,24V0H24V24Z" fill="none"/>
  <g id="Group_10275" data-name="Group 10275" transform="translate(2.983 1.491)">
    <path id="Path_2793" data-name="Path 2793" d="M34.052,10.688a2.239,2.239,0,0,0-2.1,1.491H21.375V13.67H31.954a2.22,2.22,0,0,0,4.194,0h3.123V12.179H36.149A2.239,2.239,0,0,0,34.052,10.688Zm0,1.491a.746.746,0,1,1-.746.746A.736.736,0,0,1,34.052,12.179Zm-7.457,5.965a2.239,2.239,0,0,0-2.1,1.491H21.375v1.491H24.5a2.22,2.22,0,0,0,4.194,0H39.271V19.636H28.692A2.239,2.239,0,0,0,26.595,18.144Zm0,1.491a.746.746,0,1,1-.746.746A.736.736,0,0,1,26.595,19.636ZM34.052,25.6a2.239,2.239,0,0,0-2.1,1.491H21.375v1.491H31.954a2.22,2.22,0,0,0,4.194,0h3.123V27.092H36.149A2.239,2.239,0,0,0,34.052,25.6Zm0,1.491a.746.746,0,1,1-.746.746A.736.736,0,0,1,34.052,27.092Z" transform="translate(-21.375 -10.688)"/>
  </g>
</svg>
