<svg id="data_image_svg_xml_1_" data-name="data_image_svg+xml;… (1)" xmlns="http://www.w3.org/2000/svg" width="24" height="24" viewBox="0 0 24 24">
  <path id="Path_1447" data-name="Path 1447" d="M0,24V0H24V24Z" fill="none"/>
  <g id="Group_8611" data-name="Group 8611" transform="translate(2.25 2.25)">
    <path id="Path_1448" data-name="Path 1448" d="M16.41,10.75a5.672,5.672,0,0,0-5.66,5.66V24.6a5.67,5.67,0,0,0,5.66,5.654H24.6a5.67,5.67,0,0,0,5.654-5.66V16.41a5.672,5.672,0,0,0-5.66-5.66Zm0,1.5h8.18a4.146,4.146,0,0,1,4.16,4.16v8.18A4.145,4.145,0,0,1,24.6,28.75H16.41A4.145,4.145,0,0,1,12.25,24.6V16.41a4.146,4.146,0,0,1,4.16-4.16Zm10.09,1.5a.75.75,0,1,0,.75.75A.748.748,0,0,0,26.5,13.75Zm-6,1.5a5.25,5.25,0,1,0,5.25,5.25A5.264,5.264,0,0,0,20.5,15.25Zm0,1.5a3.75,3.75,0,1,1-3.75,3.75A3.739,3.739,0,0,1,20.5,16.75Z" transform="translate(-10.75 -10.75)"/>
  </g>
</svg>
