<svg id="data_image_svg_xml_1_" data-name="data_image_svg+xml;… (1)" xmlns="http://www.w3.org/2000/svg" width="24" height="24" viewBox="0 0 24 24">
  <path id="Path_1495" data-name="Path 1495" d="M0,24V0H24V24Z" fill="none"/>
  <g id="Group_8635" data-name="Group 8635" transform="translate(2.983 2.983)">
    <path id="Path_1496" data-name="Path 1496" d="M21.375,21.375V27.34h1.491V23.924l4.693,4.69,1.054-1.054-4.69-4.693H27.34V21.375Zm11.931,0v1.491h3.417l-4.69,4.693,1.054,1.054,4.693-4.69V27.34h1.491V21.375ZM27.559,32.033l-4.693,4.69V33.306H21.375v5.965H27.34V37.78H23.924l4.69-4.693Zm5.528,0-1.054,1.054,4.69,4.693H33.306v1.491h5.965V33.306H37.78v3.417Z" transform="translate(-21.375 -21.375)"/>
  </g>
</svg>
